<?xml version="1.0"?>
<svg width="300" height="300" xmlns="http://www.w3.org/2000/svg" xmlns:svg="http://www.w3.org/2000/svg" version="1.1">
 <g class="layer">
  <title>Layer 1</title>
  <path d="m66.35,4.13c3.38,1.15 5.23,2.93 6.84,6c0.82,2.41 0.94,4.79 1.13,7.32c1.38,14.7 7.63,27.4 19.26,37.25c11.38,8.98 26.15,13.32 40.79,12.33c14.48,-1.39 28.39,-8.15 37.82,-18.87c7.67,-9.57 12.08,-20.41 12.69,-32.49c0.22,-4.26 1.14,-7.04 4.37,-10c3.02,-1.86 6.06,-1.9 9.56,-1.53c3.09,1.48 5.26,3.56 6.81,6.54c1.07,17.89 -4.89,36.45 -17.19,50.13c-1.65,1.77 -3.37,3.49 -5.09,5.18c-0.36,0.38 -0.72,0.76 -1.09,1.16c-3.57,3.71 -8.44,7.29 -13.15,9.54c0,0.39 0,0.79 0,1.19c0.94,0.6 1.92,1.17 2.9,1.71c4.18,2.48 7.59,5.53 11.09,8.79c0.69,0.64 1.41,1.26 2.12,1.88c12.23,10.89 19.65,28.8 20.49,44.56c0.67,20.21 -4.41,38.04 -18.04,53.69c-0.39,0.46 -0.78,0.91 -1.18,1.39c-11.61,13.28 -29.39,21.47 -47.1,23.6c0,14.72 0,29.45 0,44.62c4.28,-0.04 8.57,-0.07 12.98,-0.11c2.72,-0.01 5.44,-0.02 8.15,-0.04c4.31,-0.01 8.62,-0.04 12.93,-0.09c3.47,-0.02 6.95,-0.05 10.42,-0.05c1.33,0 2.66,-0.01 3.98,-0.04c1.85,-0.02 3.72,-0.02 5.57,-0.02c0.55,-0.01 1.09,-0.01 1.65,-0.02c3.7,0.02 6.01,0.85 8.69,3.34c2.21,2.94 2.37,6.01 1.85,9.52c-1.12,3.19 -3.14,4.99 -6.19,6.54c-1.98,0.33 -3.92,0.31 -5.94,0.27c-0.88,0 -0.88,0 -1.78,0c-1.92,0 -3.85,-0.02 -5.78,-0.04c-1.34,0 -2.69,0 -4.02,-0.01c-3.52,0 -7.05,-0.02 -10.58,-0.06c-3.6,-0.02 -7.19,-0.02 -10.79,-0.04c-7.06,-0.02 -14.1,-0.07 -21.16,-0.12c0.01,0.71 0.01,1.43 0.02,2.17c0.07,6.72 0.11,13.46 0.14,20.18c0.02,3.46 0.03,6.92 0.08,10.38c0.03,3.34 0.05,6.67 0.06,10.01c0.01,1.27 0.02,2.55 0.03,3.83c0.02,1.79 0.02,3.57 0.02,5.36c0.01,0.79 0.01,0.79 0.03,1.59c-0.03,3.56 -0.88,5.78 -3.48,8.35c-2.65,1.83 -5.15,2.13 -8.33,2.03c-3.17,-0.5 -5.53,-2.02 -7.5,-4.42c-1.23,-2.5 -1.13,-4.68 -1.09,-7.41c0,-0.85 0,-0.85 0,-1.71c0,-1.86 0.01,-3.71 0.03,-5.58c0,-1.28 0.01,-2.57 0.01,-3.87c0.01,-3.39 0.02,-6.79 0.04,-10.17c0.02,-3.46 0.03,-6.92 0.03,-10.38c0.02,-6.8 0.06,-13.58 0.09,-20.37c-0.74,0 -1.49,0.01 -2.26,0.01c-7,0.06 -14,0.11 -21.01,0.14c-3.6,0.01 -7.2,0.04 -10.8,0.07c-3.47,0.02 -6.95,0.05 -10.42,0.05c-1.33,0 -2.66,0.01 -3.98,0.04c-1.85,0.02 -3.72,0.02 -5.57,0.02c-0.55,0.01 -1.09,0.01 -1.65,0.02c-3.7,-0.02 -6.01,-0.85 -8.69,-3.34c-1.91,-2.55 -2.22,-4.94 -2.12,-8c0.52,-3.04 2.1,-5.32 4.6,-7.2c2.6,-1.18 4.87,-1.08 7.72,-1.05c0.59,0 1.17,0 1.78,0c1.93,0 3.86,0.01 5.8,0.02c1.34,0 2.68,0 4.02,0c3.53,0 7.06,0.02 10.59,0.04c4.23,0.02 8.47,0.02 12.7,0.04c6.43,0.01 12.86,0.05 19.3,0.09c0,-14.72 0,-29.45 0,-44.62c-5.21,-0.89 -5.21,-0.89 -10.52,-1.79c-2.09,-0.59 -4.02,-1.17 -6.03,-1.93c-0.49,-0.17 -0.98,-0.36 -1.49,-0.54c-13.02,-4.93 -24.27,-12.98 -32.72,-23.69c-0.46,-0.57 -0.92,-1.15 -1.4,-1.74c-6.28,-8.24 -10.37,-17.51 -12.84,-27.41c-0.15,-0.59 -0.3,-1.19 -0.46,-1.81c-3.88,-18.98 0.83,-38.73 11.63,-54.8c2.78,-3.79 5.95,-7.23 9.26,-10.62c0.38,-0.41 0.76,-0.8 1.15,-1.22c3.81,-3.89 8.71,-7.68 13.7,-10.09c0,-0.39 0,-0.79 0,-1.19c-0.94,-0.6 -1.92,-1.17 -2.9,-1.71c-4.18,-2.48 -7.59,-5.53 -11.09,-8.81c-0.69,-0.64 -1.41,-1.26 -2.12,-1.88c-12.8,-11.4 -19.67,-29.42 -20.6,-45.85c-0.03,-0.96 -0.06,-1.92 -0.08,-2.87c-0.02,-0.67 -0.02,-0.67 -0.04,-1.33c0.02,-3.07 0.79,-4.78 2.79,-7.14c3.53,-2.98 5.91,-3.35 10.52,-2.98l0.01,0.05zm25.38,96.96c-0.69,0.58 -0.69,0.58 -1.4,1.18c-10.04,8.98 -16.11,22.06 -16.73,35.16c-0.4,14.22 3.55,27.45 13.52,38.25c0.91,0.91 1.83,1.83 2.75,2.75c0.33,0.36 0.65,0.71 0.99,1.08c8.96,9.47 23.14,14.41 36.15,15.07c14.74,0.37 28.22,-4.16 39.27,-13.55c0.95,-0.87 1.89,-1.74 2.83,-2.61c0.38,-0.32 0.76,-0.64 1.15,-0.97c8.81,-7.71 14.29,-20.64 15.04,-31.9c0.64,-15.37 -3.25,-28.67 -13.98,-40.45c-10.63,-10.89 -24.52,-17.65 -40.16,-18.31c-14.91,0.11 -28.22,4.72 -39.42,14.3l0.01,0z" fill="#007fff" id="svg_1" transform="rotate(44.5843, 129.319, 172.525)"/>
 </g>

</svg>