<?xml version="1.0"?>
<svg width="3000" height="3000" xmlns="http://www.w3.org/2000/svg" xmlns:svg="http://www.w3.org/2000/svg" version="1.1">
 <g class="layer">
  <title>Layer 1</title>
  <path d="m757.36,-23.59c30.91,11.66 47.83,29.7 62.55,60.81c7.5,24.43 8.6,48.55 10.33,74.19c12.62,148.99 69.78,277.7 176.13,377.54c104.07,91.01 239.14,135 373.02,124.97c132.42,-14.09 259.62,-82.6 345.86,-191.25c70.14,-96.99 110.47,-206.86 116.05,-329.29c2.01,-43.18 10.43,-71.35 39.96,-101.35c27.62,-18.85 55.42,-19.26 87.42,-15.51c28.26,15 48.1,36.08 62.28,66.28c9.78,181.32 -44.72,369.43 -157.2,508.08c-15.09,17.94 -30.82,35.37 -46.55,52.5c-3.29,3.85 -6.58,7.7 -9.97,11.76c-32.65,37.6 -77.18,73.89 -120.25,96.69c0,3.95 0,8.01 0,12.06c8.6,6.08 17.56,11.86 26.52,17.33c38.23,25.14 69.41,56.05 101.42,89.09c6.31,6.49 12.89,12.77 19.39,19.05c111.84,110.37 179.7,291.89 187.38,451.62c6.13,204.83 -40.33,385.54 -164.97,544.16c-3.57,4.66 -7.13,9.22 -10.79,14.09c-106.17,134.6 -268.77,217.6 -430.72,239.19c0,149.19 0,298.48 0,452.23c39.14,-0.41 78.37,-0.71 118.7,-1.11c24.87,-0.1 49.75,-0.2 74.53,-0.41c39.41,-0.1 78.83,-0.41 118.24,-0.91c31.73,-0.2 63.56,-0.51 95.29,-0.51c12.16,0 24.33,-0.1 36.4,-0.41c16.92,-0.2 34.02,-0.2 50.94,-0.2c5.03,-0.1 9.97,-0.1 15.09,-0.2c33.84,0.2 54.96,8.61 79.47,33.85c20.21,29.8 21.67,60.91 16.92,96.49c-10.24,32.33 -28.71,50.57 -56.61,66.28c-18.11,3.34 -35.85,3.14 -54.32,2.74c-8.05,0 -8.05,0 -16.28,0c-17.56,0 -35.21,-0.2 -52.86,-0.41c-12.25,0 -24.6,0 -36.76,-0.1c-32.19,0 -64.47,-0.2 -96.75,-0.61c-32.92,-0.2 -65.75,-0.2 -98.67,-0.41c-64.56,-0.2 -128.94,-0.71 -193.5,-1.22c0.09,7.2 0.09,14.49 0.18,21.99c0.64,68.11 1.01,136.42 1.28,204.53c0.18,35.07 0.27,70.14 0.73,105.2c0.27,33.85 0.46,67.6 0.55,101.45c0.09,12.87 0.18,25.84 0.27,38.82c0.18,18.14 0.18,36.18 0.18,54.32c0.09,8.01 0.09,8.01 0.27,16.11c-0.27,36.08 -8.05,58.58 -31.82,84.63c-24.23,18.55 -47.1,21.59 -76.18,20.57c-28.99,-5.07 -50.57,-20.47 -68.59,-44.8c-11.25,-25.34 -10.33,-47.43 -9.97,-75.1c0,-8.61 0,-8.61 0,-17.33c0,-18.85 0.09,-37.6 0.27,-56.55c0,-12.97 0.09,-26.05 0.09,-39.22c0.09,-34.36 0.18,-68.82 0.37,-103.07c0.18,-35.07 0.27,-70.14 0.27,-105.2c0.18,-68.92 0.55,-137.64 0.82,-206.45c-6.77,0 -13.63,0.1 -20.67,0.1c-64.01,0.61 -128.03,1.11 -192.13,1.42c-32.92,0.1 -65.84,0.41 -98.76,0.71c-31.73,0.2 -63.56,0.51 -95.29,0.51c-12.16,0 -24.33,0.1 -36.4,0.41c-16.92,0.2 -34.02,0.2 -50.94,0.2c-5.03,0.1 -9.97,0.1 -15.09,0.2c-33.84,-0.2 -54.96,-8.61 -79.47,-33.85c-17.47,-25.84 -20.3,-50.07 -19.39,-81.08c4.76,-30.81 19.2,-53.92 42.07,-72.97c23.78,-11.96 44.54,-10.95 70.6,-10.64c5.4,0 10.7,0 16.28,0c17.65,0 35.3,0.1 53.04,0.2c12.25,0 24.51,0 36.76,0c32.28,0 64.56,0.2 96.84,0.41c38.68,0.2 77.46,0.2 116.14,0.41c58.8,0.1 117.6,0.51 176.5,0.91c0,-149.19 0,-298.48 0,-452.23c-47.64,-9.02 -47.64,-9.02 -96.2,-18.14c-19.11,-5.98 -36.76,-11.86 -55.14,-19.56c-4.48,-1.72 -8.96,-3.65 -13.63,-5.47c-119.07,-49.97 -221.95,-131.55 -299.22,-240.1c-4.21,-5.78 -8.41,-11.66 -12.8,-17.64c-57.43,-83.51 -94.83,-177.47 -117.42,-277.81c-1.37,-5.98 -2.74,-12.06 -4.21,-18.34c-35.48,-192.37 7.59,-392.54 106.35,-555.41c25.42,-38.41 54.41,-73.28 84.68,-107.64c3.48,-4.16 6.95,-8.11 10.52,-12.36c34.84,-39.43 79.65,-77.84 125.28,-102.26c0,-3.95 0,-8.01 0,-12.06c-8.6,-6.08 -17.56,-11.86 -26.52,-17.33c-38.23,-25.14 -69.41,-56.05 -101.42,-89.29c-6.31,-6.49 -12.89,-12.77 -19.39,-19.05c-117.05,-115.54 -179.88,-298.18 -188.38,-464.7c-0.27,-9.73 -0.55,-19.46 -0.73,-29.09c-0.18,-6.79 -0.18,-6.79 -0.37,-13.48c0.18,-31.12 7.22,-48.45 25.51,-72.37c32.28,-30.2 54.05,-33.95 96.2,-30.2l0.09,0.51l0.27,0.1zm232.1,982.71c-6.31,5.88 -6.31,5.88 -12.8,11.96c-91.81,91.01 -147.32,223.58 -152.99,356.35c-3.66,144.12 32.46,278.21 123.64,387.67c8.32,9.22 16.74,18.55 25.15,27.87c3.02,3.65 5.94,7.2 9.05,10.95c81.94,95.98 211.61,146.05 330.59,152.74c134.8,3.75 258.07,-42.16 359.12,-137.33c8.69,-8.82 17.28,-17.64 25.88,-26.45c3.48,-3.24 6.95,-6.49 10.52,-9.83c80.57,-78.14 130.68,-209.19 137.54,-323.31c5.85,-155.78 -29.72,-290.58 -127.84,-409.97c-97.21,-110.37 -224.23,-178.89 -367.26,-185.58c-136.35,1.11 -258.07,47.84 -360.49,144.93l0.09,0l-0.18,0z" fill="#007fff" id="svg_1" transform="rotate(44.0389, 1333, 1682.97)"/>
 </g>

</svg>