<?xml version="1.0"?>
<svg width="300" height="300" xmlns="http://www.w3.org/2000/svg" xmlns:svg="http://www.w3.org/2000/svg" version="1.1">
 <g class="layer">
  <title>Layer 1</title>
  <path d="m235.7,32.54c29.95,22.82 53.64,53.79 58.71,91.72c3.87,48.2 -3.54,87.38 -35.48,125.4c-25.46,27.06 -57.05,43.5 -94.35,45.55c-47.38,1.62 -84.69,-9.21 -120,-41.85c-27.64,-28.89 -40.44,-62.35 -40,-101.77c0.03,-2.59 0.05,-5.21 0.08,-7.88c0.93,-38.67 15.93,-68.88 42.48,-97.07c51.22,-48.12 130.49,-53.6 188.57,-14.09zm-181.76,35.86c-18.54,21.82 -29.11,46.12 -29.11,74.77c82.67,0 165.34,0 250.52,0c-4.11,-40.96 -16.83,-66.02 -48.66,-92.83c-53.78,-40.72 -127.74,-29.16 -172.75,18.06zm-29.11,90.97c4.11,40.77 16.8,65.51 48.01,92.64c30.69,22.82 64.54,27.68 101.76,23.46c33.22,-6.05 62.41,-26.68 81.69,-54c12.04,-20.2 19.06,-38.4 19.06,-62.1c-82.67,0 -165.34,0 -250.52,0z" fill="#007fff" id="svg_1"/>
 </g>

</svg>