<svg width="702" height="702" xmlns="http://www.w3.org/2000/svg" version="1.0" preserveAspectRatio="xMidYMid meet">
 <title>SolMicDef</title>
 <g id="Layer_1">
  <title>Layer 1</title>
  <g>
   <g>
    <path opacity="0.977" d="m334.40078,2.00001c1.19224,0 2.38537,0 3.57761,0c88.15316,66.88647 135.10926,155.17311 140.86832,264.85999c0.64665,16.85956 0.34882,33.70343 -0.8944,50.5325c-0.29784,0.29013 -0.59657,0.58112 -0.8944,0.87125c-17.20651,-4.71695 -34.20014,-9.94445 -50.98091,-15.6825c0.10286,-19.1553 -0.79155,-38.3228 -2.68321,-57.5025c-6.77599,-52.38303 -26.155,-99.72066 -58.13613,-142.01375c-8.19898,-9.72925 -16.39707,-19.45789 -24.59606,-29.18687c-0.59657,-0.58086 -1.19224,-0.58086 -1.7888,0c-4.36289,4.53878 -8.3877,9.33065 -12.07443,14.37562c-1.0858,1.34957 -2.42741,2.36544 -4.02481,3.04937c-22.7992,3.84657 -45.45709,8.34832 -67.97455,13.50437c3.05259,-8.27078 7.0774,-16.11237 12.07443,-23.52375c19.04182,-29.15655 41.55123,-55.58444 67.52735,-79.28375z" fill="#8CD79F"/>
   </g>
   <g>
    <path opacity="0.977" d="m331.71757,97.83751c8.07198,-0.28925 16.1216,0.00174 24.14885,0.87125c13.78721,16.40564 24.81787,34.41176 33.09287,54.0175c-102.27397,-14.96459 -185.90056,16.40041 -250.87976,94.095c-38.43693,49.31101 -56.62262,105.071 -54.55852,167.27999c-14.67383,17.34136 -28.83516,35.05649 -42.4841,53.14625c-24.18409,-117.6597 9.20697,-216.83756 100.17302,-297.53187c55.25705,-44.42329 118.75959,-68.38267 190.50763,-71.87812z" fill="#8CD79F"/>
   </g>
   <g>
    <path opacity="0.976" d="m444.41222,116.13376c74.34001,24.64766 130.24014,70.53378 167.70038,137.6575c31.86307,58.44083 44.08686,120.58971 36.67048,186.44749c-5.16875,34.56249 -15.90157,67.37899 -32.19847,98.45125c-1.76197,3.02149 -3.69925,5.92537 -5.81361,8.7125c-20.5149,1.91501 -41.08614,2.78626 -61.71374,2.61375c0.22807,-2.19206 0.974,-4.22556 2.23601,-6.09875c52.49693,-75.44415 62.03751,-155.89014 28.62086,-241.33624c-14.45264,-32.96113 -35.17236,-61.56688 -62.16094,-85.81812c-14.58322,-12.75858 -29.93742,-24.52046 -46.0617,-35.28562c-7.62031,-22.39287 -16.71369,-44.17412 -27.27926,-65.34375z" fill="#8CD79F"/>
   </g>
   <g>
    <path opacity="0.977" d="m286.10307,158.82501c0.55811,0.36331 0.85594,0.94443 0.8944,1.7425c-35.61598,112.89222 -14.15033,213.95721 64.39694,303.19499c-11.04765,13.81105 -23.71865,26.00855 -38.01209,36.5925c-80.12232,-87.52142 -110.53199,-189.45766 -91.229,-305.80874c0.72357,-4.54792 2.06517,-8.90417 4.02481,-13.06875c19.2198,-9.62557 39.19448,-17.17669 59.92493,-22.6525z" fill="#8CD79F"/>
   </g>
   <g>
    <path opacity="0.978" d="m339.76719,301.71c75.36142,-1.70765 144.5291,17.31522 207.50126,57.06687c16.41138,10.46633 32.06342,21.93807 46.95611,34.41437c-0.33093,22.32578 -3.01413,44.39716 -8.04962,66.215c-0.64218,0.82856 -1.38722,0.97319 -2.23601,0.43562c-44.81133,-51.03085 -101.15866,-83.55723 -169.04198,-97.58c-27.12185,-5.77813 -54.55047,-8.10175 -82.28498,-6.97c-12.8132,1.56825 -25.63267,2.72963 -38.45929,3.485c-7.05325,-14.84523 -11.8231,-30.38223 -14.31043,-46.61187c0.29784,-0.87125 0.59657,-1.7425 0.8944,-2.61375c19.59903,-4.0548 39.27588,-6.66855 59.03053,-7.84125z" fill="#8CD79F"/>
   </g>
   <g>
    <path opacity="0.976" d="m-0.99997,604.90499c0,-2.90388 0,-5.80862 0,-8.7125c14.41758,-75.57745 49.00116,-140.77657 103.75063,-195.59562c28.47597,-25.7829 60.07877,-47.27402 94.80661,-64.4725c5.45317,-2.94657 11.11742,-5.41569 16.99364,-7.40562c1.91044,0.84685 2.95421,2.29923 3.13041,4.35625c4.09457,14.6492 8.11938,29.31495 12.07443,43.99812c-0.22897,2.15809 -1.4212,3.61046 -3.57761,4.35625c-69.05678,31.56103 -118.99482,81.36778 -149.81234,149.41937c-5.24084,11.2278 -9.86186,22.69955 -13.86323,34.41437c0.2981,0.43562 0.5963,0.87125 0.8944,1.30687c5.6155,1.47154 11.28011,2.77842 16.99364,3.92062c13.97593,19.14223 29.62796,37.00286 46.95611,53.58187c0.59657,0.58112 0.59657,1.16138 0,1.7425c-43.76711,-0.98277 -86.54931,-7.95277 -128.34669,-20.91z" fill="#8CD79F"/>
   </g>
   <g>
    <path opacity="0.976" d="m412.21375,365.31125c17.58931,4.11404 34.88168,9.19604 51.87532,15.24687c-36.20718,106.42318 -107.75934,180.47943 -214.65648,222.16874c-10.78112,4.12972 -21.81178,7.46923 -33.09287,10.01937c-19.06597,-11.25916 -36.80464,-24.32791 -53.21692,-39.20625c-0.24238,-2.00997 0.80049,-3.02672 3.13041,-3.04937c73.61465,-12.68191 135.47775,-45.64391 185.58842,-98.88687c26.83027,-31.6377 46.95432,-67.06795 60.37214,-106.2925z" fill="#8CD79F"/>
   </g>
   <g>
    <path opacity="0.978" d="m702,579.63874c0,1.45237 0,2.90388 0,4.35625c-21.96025,7.56593 -44.3203,13.80931 -67.08015,18.73187c-97.86815,14.97504 -187.60619,-4.48258 -269.215,-58.37375c-0.59657,-0.87125 -1.19224,-1.7425 -1.7888,-2.61375c11.00472,-11.59111 22.33322,-22.91736 33.98728,-33.97875c1.40153,-0.93746 2.8925,-1.66322 4.47201,-2.17812c45.65922,27.84602 95.4479,43.96414 149.36513,48.35437c28.60029,1.89497 56.92332,0.00697 84.96819,-5.66312c-2.68589,-6.97436 -5.3691,-13.94436 -8.04962,-20.91c8.46551,-21.40051 15.7701,-43.18176 21.91285,-65.34375c0.37028,-0.39816 0.81748,-0.68916 1.3416,-0.87125c17.35229,25.96848 30.61896,53.84848 39.80089,83.64c3.4506,11.71918 6.87974,23.33556 10.28562,34.85z" fill="#8CD79F"/>
   </g>
   <g>
    <path opacity="0.977" d="m364.81044,698.99999c-16.09924,0 -32.19847,0 -48.29771,0c-106.3918,-10.84968 -187.48455,-60.51092 -243.27734,-148.98375c7.32927,-20.08754 17.01868,-38.96491 29.06807,-56.63125c16.52139,34.08853 38.43424,64.43678 65.73855,91.04562c57.07179,48.44411 123.55538,69.93524 199.45165,64.4725c28.87666,-3.61917 56.60312,-11.1703 83.17939,-22.6525c13.55824,-6.74783 26.97427,-13.71783 40.24809,-20.91c2.68321,-0.58112 5.36641,-0.58112 8.04962,0c19.84052,3.79778 39.8152,6.70253 59.92493,8.7125c-54.50396,50.06464 -119.19964,78.38026 -194.08523,84.94687z" fill="#8CD79F"/>
   </g>
  </g>
 </g>

</svg>