<svg width="16px" height="16px" xmlns="http://www.w3.org/2000/svg" xmlns:svg="http://www.w3.org/2000/svg" version="1.1" fill="currentColor" viewBox="0 0 300 300"><g class="layer"><path d="m150.74,-33.28c0.45,-0.01 0.91,-0.02 1.37,-0.03c3.83,1.03 6.25,3.17 8.33,6.81c0.65,1.26 1.3,2.53 1.93,3.8c0.73,1.41 1.46,2.82 2.18,4.23c0.37,0.73 0.74,1.46 1.12,2.21c1.81,3.54 3.68,7.05 5.55,10.56c0.75,1.41 1.5,2.84 2.24,4.25c2.24,4.24 4.48,8.47 6.71,12.71c0.74,1.4 1.49,2.81 2.23,4.22c0.55,1.04 0.55,1.04 1.12,2.11c39.01,73.82 39.01,73.82 40.13,75.93c0.74,1.4 1.48,2.81 2.22,4.21c1.87,3.53 3.73,7.06 5.6,10.6c3.31,6.28 6.63,12.55 9.98,18.8c1.04,1.95 2.07,3.89 3.11,5.85c1.17,2.2 2.37,4.38 3.61,6.54c2.77,4.93 4.86,9.21 3.64,15.17c-1.28,3 -3.09,5.25 -5.95,6.49c-2.75,0.38 -5.49,0.32 -8.26,0.29c-0.84,0 -1.69,0 -2.53,0c-2.28,0 -4.57,-0.01 -6.85,-0.03c-2.39,-0.01 -4.78,-0.02 -7.17,-0.02c-4.52,-0.01 -9.04,-0.03 -13.57,-0.06c-6.11,-0.03 -12.22,-0.05 -18.34,-0.06c-9.63,-0.03 -19.26,-0.08 -28.88,-0.12c0,21.62 0,43.26 0,65.55c15.89,-0.08 15.89,-0.08 31.76,-0.18c3.08,-0.01 3.08,-0.01 4.52,-0.01c1,-0.01 2,-0.01 3.01,-0.02c1.53,-0.01 3.05,-0.02 4.57,-0.02c0.45,-0.01 0.89,-0.01 1.34,-0.02c2.81,0.02 4.71,0.58 7.1,2.19c2.31,2.66 3.41,5 3.79,8.64c-0.28,2.98 -1.02,5.15 -2.6,7.59c-3.31,2.87 -5.87,3.34 -9.98,3.32c-0.47,0 -0.94,0 -1.42,0c-1.55,0 -3.11,-0.01 -4.66,-0.01c-1.08,0 -2.16,0 -3.23,0c-2.84,-0.01 -5.67,-0.01 -8.5,-0.02c-2.9,-0.01 -5.79,-0.01 -8.68,-0.01c-5.68,-0.01 -11.36,-0.01 -17.03,-0.03c0.01,0.61 0.01,0.61 0.01,1.23c0.07,9.92 0.12,19.83 0.15,29.75c0.01,4.8 0.04,9.6 0.07,14.39c0.03,4.18 0.05,8.36 0.05,12.54c0.01,2.21 0.01,4.43 0.04,6.64c0.02,2.47 0.02,4.95 0.02,7.42c0.01,1.1 0.01,1.1 0.03,2.21c-0.02,4.49 -0.53,6.83 -3.34,10.18c-2.54,2 -4.94,2.32 -8,2.21c-2.49,-0.45 -4.44,-1.64 -6.27,-3.51c-1.47,-2.31 -2,-3.86 -2,-6.67c-0.01,-1.01 -0.01,-1.01 -0.01,-2.04c0.01,-0.74 0.01,-1.47 0.02,-2.23c0,-0.78 0,-1.56 0,-2.36c0,-2.13 0.01,-4.26 0.02,-6.39c0.01,-2.23 0.01,-4.46 0.01,-6.68c0.01,-4.22 0.02,-8.44 0.04,-12.65c0.02,-4.8 0.03,-9.6 0.04,-14.41c0.02,-9.88 0.05,-19.75 0.09,-29.63c-0.59,0 -1.18,0.01 -1.8,0.01c-5.6,0.05 -11.19,0.09 -16.79,0.12c-2.88,0.01 -5.75,0.03 -8.63,0.06c-2.78,0.03 -5.56,0.04 -8.33,0.05c-1.06,0.01 -2.12,0.02 -3.17,0.03c-1.49,0.02 -2.97,0.02 -4.46,0.02c-0.43,0.01 -0.86,0.02 -1.31,0.03c-3.2,-0.03 -5.75,-0.93 -8.41,-2.91c-2.48,-3.4 -3.3,-6.05 -2.97,-10.38c1.08,-3.43 2.51,-5.81 5.35,-7.79c2.18,-0.8 4.19,-0.74 6.46,-0.73c0.48,0 0.96,0 1.46,0c1.56,0 3.13,0.01 4.7,0.01c0.97,0 1.93,0 2.9,0c3.58,0.01 7.16,0.01 10.75,0.02c12.01,0.02 12.01,0.02 24.26,0.05c0,-21.63 0,-43.27 0,-65.55c-6.14,0.03 -12.28,0.06 -18.6,0.09c-3.88,0.01 -7.77,0.03 -11.65,0.03c-6.17,0.01 -12.34,0.03 -18.51,0.07c-4.49,0.03 -8.99,0.04 -13.48,0.05c-2.38,0.01 -4.76,0.01 -7.14,0.03c-2.24,0.02 -4.48,0.02 -6.72,0.02c-0.82,0 -1.64,0.01 -2.46,0.01c-7.68,0.09 -7.68,0.09 -10.62,-2.9c-2.59,-2.99 -2.69,-5.63 -2.63,-9.56c0.45,-3.73 2.12,-6.58 3.89,-9.75c0.38,-0.7 0.76,-1.4 1.14,-2.12c0.78,-1.45 1.58,-2.9 2.37,-4.35c1.45,-2.64 2.87,-5.3 4.28,-7.97c1.03,-1.93 2.06,-3.86 3.1,-5.79c2.19,-4.09 4.37,-8.2 6.54,-12.3c0.37,-0.7 0.74,-1.4 1.12,-2.12c0.76,-1.42 1.5,-2.84 2.25,-4.26c1.86,-3.52 3.72,-7.05 5.58,-10.57c0.74,-1.41 1.49,-2.82 2.23,-4.22c4.46,-8.44 8.92,-16.87 13.38,-25.31c0.37,-0.7 0.74,-1.4 1.12,-2.12c0.74,-1.4 1.48,-2.81 2.22,-4.21c1.87,-3.53 3.73,-7.06 5.6,-10.6c3.58,-6.78 7.17,-13.56 10.79,-20.31c3.01,-5.63 5.99,-11.29 8.95,-16.95c3.69,-7.07 7.41,-14.11 11.18,-21.12c1.22,-2.26 2.41,-4.55 3.57,-6.85c0.26,-0.51 0.52,-1.01 0.79,-1.54c0.46,-0.92 0.93,-1.84 1.37,-2.77c2.05,-3.97 5.47,-7.15 9.84,-7.07zm-0.59,32.86c-0.32,0.61 -0.32,0.61 -0.63,1.24c-4.55,8.92 -9.17,17.79 -13.9,26.61c-2.19,4.09 -4.37,8.2 -6.54,12.3c-0.37,0.7 -0.74,1.4 -1.12,2.12c-0.76,1.42 -1.5,2.84 -2.25,4.26c-1.86,3.52 -3.72,7.05 -5.58,10.57c-0.74,1.4 -1.49,2.81 -2.23,4.22c-7.43,14.06 -14.86,28.12 -22.29,42.18c-0.37,0.69 -0.74,1.39 -1.12,2.11c-0.74,1.4 -1.47,2.8 -2.22,4.19c-1.72,3.26 -3.44,6.52 -5.16,9.78c-0.61,1.15 -1.21,2.29 -1.81,3.44c-0.76,1.43 -1.51,2.86 -2.27,4.29c-1.94,3.68 -3.91,7.33 -5.96,10.93c-0.73,1.23 -0.73,1.23 -0.64,2.58c49.05,0 98.09,0 148.63,0c-0.83,-2.27 -1.62,-4.19 -2.71,-6.28c-0.3,-0.58 -0.6,-1.17 -0.92,-1.77c-0.32,-0.62 -0.65,-1.25 -0.99,-1.89c-0.34,-0.66 -0.68,-1.32 -1.04,-2c-2.75,-5.27 -5.55,-10.51 -8.36,-15.75c-2.69,-5.03 -5.35,-10.08 -7.99,-15.14c-3.29,-6.31 -6.62,-12.6 -9.98,-18.87c-3.66,-6.83 -7.28,-13.69 -10.9,-20.54c-1.86,-3.52 -3.72,-7.05 -5.58,-10.57c-0.74,-1.41 -1.49,-2.82 -2.23,-4.22c-0.55,-1.04 -0.55,-1.04 -1.11,-2.11c-1.12,-2.11 -2.23,-4.22 -3.35,-6.33c-0.37,-0.7 -0.74,-1.4 -1.12,-2.12c-0.74,-1.4 -1.47,-2.79 -2.21,-4.19c-1.73,-3.26 -3.45,-6.53 -5.18,-9.8c-0.61,-1.15 -1.22,-2.3 -1.83,-3.45c-0.76,-1.43 -1.53,-2.87 -2.29,-4.32c-2.02,-3.82 -4.01,-7.64 -5.95,-11.49c-0.39,0 -0.78,0 -1.19,0z" fill="#007fff" id="svg_1" transform="rotate(44.1379, 150.787, 150.712)"></path></g></svg>