<svg width="702" height="702" xmlns="http://www.w3.org/2000/svg" style="vector-effect: non-scaling-stroke;" preserveAspectRatio="xMidYMid meet" version="1.0">
 <title>Threeprimesdef3</title>
 <metadata>Created by potrace 1.16, written by Peter Selinger 2001-2019</metadata>

 <g>
  <title>Layer 1</title>
  <g stroke-width="0" id="svg_1" fill="#000000" transform="translate(0, 225) scale(0.1, -0.1)">
   <path stroke="#645A73" fill="#7f20e5" id="svg_2" d="m3047.09531,1790.22336c-472.67453,-142.04533 -850.81415,-503.33455 -997.50625,-947.99821c-107.5742,-327.32186 -88.01526,-555.82957 130.39297,-1358.6945c133.6528,-487.89484 182.55016,-716.40255 156.47157,-722.57844c-22.81877,-6.17588 -345.54138,-89.55032 -723.681,-185.27652c-772.57837,-197.62829 -955.12853,-268.65096 -1183.31623,-463.19131c-665.00416,-565.09339 -668.26399,-1540.88308 -9.77947,-2124.50412c469.4147,-416.87217 1219.1743,-481.71896 1773.34444,-154.3971c74.97596,43.23119 391.17892,314.97009 700.86223,605.23664l563.94961,528.03809l185.80999,-169.83681c101.05455,-92.63826 368.36015,-333.49774 593.28803,-540.38986c224.92788,-206.89212 472.67453,-410.69629 554.17014,-453.92748c593.28803,-318.05803 1382.16552,-197.62829 1828.76145,284.09067c534.61119,574.35722 511.79242,1423.54128 -55.41701,1970.10702c-234.70735,225.41977 -456.37541,318.05803 -1235.47342,515.68632c-374.8798,95.7262 -700.86223,182.18858 -720.42118,188.36446c-26.07859,6.17588 26.07859,250.1233 153.21174,741.10609c205.36893,784.33728 224.92788,960.34997 143.43227,1259.88035c-133.6528,487.89484 -482.454,849.18406 -977.9473,1009.75705c-221.66805,71.02267 -671.52381,80.28649 -880.15257,18.52765zm749.7596,-95.7262c1026.84467,-253.21125 1385.42534,-1494.56395 635.66575,-2207.87856c-788.87749,-744.19403 -2112.36617,-330.4098 -2317.7351,719.49049c-127.13315,651.55577 322.72261,1309.28742 1017.06519,1485.30012c231.44753,58.6709 430.29681,58.6709 665.00416,3.08794zm-29.33842,-2831.64285c149.95192,-37.0553 273.82524,-80.28649 273.82524,-95.7262c0,-15.43971 -39.11789,-86.46238 -84.75543,-163.66093l-84.75543,-135.86945l-404.21822,0l-400.95839,0l-84.75543,132.78151c-45.63754,74.11061 -81.49561,148.22122 -81.49561,166.74887c0,30.87942 407.47804,151.30916 534.61119,160.57299c32.59824,0 182.55016,-27.79148 332.50208,-64.84678zm-1890.69811,-586.70899c257.52612,-89.55032 511.79242,-277.91478 661.74434,-490.98278c185.80999,-265.56302 241.227,-463.19131 224.92788,-815.2167c-9.77947,-247.03536 -26.07859,-311.88215 -123.87332,-497.15867c-427.03699,-827.56847 -1574.49515,-997.40528 -2219.94037,-327.32186c-521.57189,540.38986 -508.5326,1315.46331 32.59824,1831.14963c384.65927,361.28922 925.79011,475.54307 1424.54323,299.53038zm1316.96903,-231.59565l202.10911,-333.49774l-88.01526,-160.57299c-48.89737,-89.55032 -97.79473,-163.66093 -110.83403,-163.66093c-13.0393,0 -117.35368,92.63826 -234.70735,209.98006c-202.10911,194.54035 -218.40823,222.33183 -286.86454,469.36719c-39.11789,145.13328 -68.45631,271.7389 -68.45631,287.17861c0,12.35177 84.75543,21.61559 192.32964,21.61559l189.06981,0l205.36893,-330.4098zm586.76838,299.53038c0,-24.70354 -273.82524,-484.8069 -309.68331,-518.77426c-13.0393,-12.35177 -309.68331,478.63102 -309.68331,518.77426c0,18.52765 117.35368,30.87942 309.68331,30.87942c179.29034,0 309.68331,-12.35177 309.68331,-30.87942zm554.17014,15.43971c0,-9.26383 -32.59824,-138.95739 -68.45631,-287.17861c-68.45631,-256.29919 -78.23578,-277.91478 -286.86454,-475.54307c-117.35368,-117.3418 -224.92788,-209.98006 -234.70735,-209.98006c-26.07859,0 -192.32964,271.7389 -192.32964,314.97009c0,12.35177 88.01526,172.92475 198.84928,348.93745l198.84928,324.23391l192.32964,0c104.31438,0 192.32964,-6.17588 192.32964,-15.43971zm1398.46464,-15.43971c590.0282,-92.63826 1052.92326,-543.4778 1147.45817,-1120.92296c81.49561,-487.89484 -176.03051,-1012.84499 -632.40592,-1290.75977c-534.61119,-327.32186 -1228.95377,-250.1233 -1685.32918,185.27652c-322.72261,308.7942 -475.93435,756.5458 -391.17892,1151.80238c127.13315,617.58841 619.36662,1028.2847 1320.22886,1102.39531c19.55895,0 127.13315,-12.35177 241.227,-27.79148z"/>
   <path stroke="#645A73" fill="#7f20e5" id="svg_3" d="m3206.8267,1428.93414c-205.36893,-46.31913 -472.67453,-213.068 -606.32733,-382.90481c-410.73787,-509.51044 -228.1877,-1250.61652 381.39945,-1553.23484c143.43227,-74.11061 198.84928,-83.37443 488.97365,-83.37443c277.08507,0 345.54138,9.26383 466.15488,71.02267c218.40823,111.16591 420.51734,302.61832 518.31207,497.15867c78.23578,148.22122 91.27508,209.98006 91.27508,435.39983c0,314.97009 -91.27508,534.21397 -309.68331,741.10609c-254.2663,240.85948 -681.30329,355.11333 -1030.10449,274.82684zm687.82293,-172.92475c273.82524,-135.86945 537.87102,-475.54307 537.87102,-694.78696l0,-86.46238l-977.9473,0l-974.68748,0l19.55895,101.90209c58.67684,287.17861 257.52612,534.21397 541.13084,670.08342c185.80999,89.55032 221.66805,95.7262 462.89506,86.46238c179.29034,-9.26383 303.16366,-33.96736 391.17892,-77.19855zm537.87102,-960.34997c0,-240.85948 -254.2663,-571.26928 -547.65049,-707.13873c-251.00647,-117.3418 -599.80768,-120.42974 -821.47573,-12.35177c-286.86454,138.95739 -485.71383,373.64099 -550.91031,648.46783l-29.33842,126.60562l974.68748,0c922.53029,0 974.68748,-3.08794 974.68748,-55.58296z"/>
   <path stroke="#645A73" fill="#7f20e5" id="svg_4" d="m1358.5063,-1940.01062c-65.19649,-95.7262 -739.98012,-1207.38534 -739.98012,-1216.64916c0,-6.17588 166.25104,-15.43971 368.36015,-18.52765l365.10033,-9.26383l9.77947,-145.13328l9.77947,-148.22122l-179.29034,0c-159.73139,0 -182.55016,-6.17588 -182.55016,-61.75884c0,-55.58296 22.81877,-61.75884 179.29034,-61.75884l179.29034,0l0,-169.83681c0,-129.69357 9.77947,-169.83681 48.89737,-169.83681c39.11789,0 48.89737,40.14325 48.89737,169.83681l0,169.83681l146.6921,0c123.87332,0 146.6921,9.26383 146.6921,61.75884c0,52.49501 -22.81877,61.75884 -146.6921,61.75884l-146.6921,0l0,154.3971l0,154.3971l358.58068,0c198.84928,0 358.58068,6.17588 358.58068,15.43971c0,12.35177 -743.23995,1247.52858 -769.31854,1275.32006c-3.25982,6.17588 -29.33842,-21.61559 -55.41701,-61.75884zm619.36662,-1096.21942c13.0393,-30.87942 -107.5742,-40.14325 -573.72908,-40.14325c-325.98243,0 -590.0282,6.17588 -590.0282,15.43971c0,15.43971 440.07629,747.28197 544.39066,904.76702c45.63754,71.02267 55.41701,61.75884 325.98243,-382.90481c153.21174,-253.21125 286.86454,-475.54307 293.38419,-497.15867z"/>
   <path stroke="#645A73" fill="#7f20e5" id="svg_5" d="m4856.29782,-1946.18651c0,-64.84678 123.87332,-200.71623 234.70735,-253.21125l97.79473,-49.40707l-114.09385,-111.16591c-208.62876,-203.80417 -270.56542,-447.7516 -166.25104,-679.34725c84.75543,-197.62829 309.68331,-376.72893 469.4147,-376.72893c52.15719,0 65.19649,-18.52765 65.19649,-92.63826c0,-86.46238 -9.77947,-92.63826 -114.09385,-92.63826c-94.53491,0 -114.09385,-12.35177 -114.09385,-64.84678c0,-55.58296 16.29912,-64.84678 114.09385,-52.49501c110.83403,12.35177 114.09385,9.26383 114.09385,-89.55032c0,-80.28649 13.0393,-101.90209 65.19649,-101.90209c52.15719,0 65.19649,21.61559 65.19649,108.07797c0,101.90209 6.51965,108.07797 114.09385,108.07797c78.23578,0 114.09385,15.43971 114.09385,46.31913c0,33.96736 -35.85807,46.31913 -117.35368,46.31913c-104.31438,0 -114.09385,6.17588 -104.31438,80.28649c6.51965,61.75884 39.11789,89.55032 127.13315,117.3418c286.86454,92.63826 453.11558,311.88215 453.11558,589.79693c0,182.18858 -101.05455,395.25658 -231.44753,484.8069l-91.27508,64.84678l120.6135,77.19855c143.43227,89.55032 198.84928,157.48504 202.10911,231.59565c0,80.28649 -58.67684,64.84678 -156.47157,-43.23119c-114.09385,-129.69357 -257.52612,-182.18858 -488.97365,-182.18858c-218.40823,0 -459.63523,98.81415 -511.79242,209.98006c-35.85807,74.11061 -146.6921,95.7262 -146.6921,24.70354zm902.97134,-410.69629c143.43227,-64.84678 273.82524,-250.1233 293.38419,-416.87217c19.55895,-179.10064 -94.53491,-385.99275 -270.56542,-481.71896c-101.05455,-55.58296 -162.99122,-67.93472 -299.90384,-58.6709c-296.64401,18.52765 -495.4933,222.33183 -495.4933,500.24661c0,379.81687 407.47804,623.76429 772.57837,457.01542z"/>
  </g>
 </g>
</svg>