<svg width="225" height="225" xmlns="http://www.w3.org/2000/svg" preserveAspectRatio="xMidYMid meet" version="1.0">
 <title>Threeprimesdef1</title>
 <metadata>Created by potrace 1.16, written by Peter Selinger 2001-2019</metadata>

 <g>
  <title>Layer 1</title>
  <g stroke-width="0" id="svg_1" fill="#000000" transform="translate(0, 225) scale(0.1, -0.1)">
   <path stroke="#645A73" fill="#826a93" id="svg_2" d="m995,2116c-145,-46 -261,-163 -306,-307c-33,-106 -27,-180 40,-440c41,-158 56,-232 48,-234c-7,-2 -106,-29 -222,-60c-237,-64 -293,-87 -363,-150c-204,-183 -205,-499 -3,-688c144,-135 374,-156 544,-50c23,14 120,102 215,196l173,171l57,-55c31,-30 113,-108 182,-175c69,-67 145,-133 170,-147c182,-103 424,-64 561,92c164,186 157,461 -17,638c-72,73 -140,103 -379,167c-115,31 -215,59 -221,61c-8,2 8,81 47,240c63,254 69,311 44,408c-41,158 -148,275 -300,327c-68,23 -206,26 -270,6zm230,-31c315,-82 425,-484 195,-715c-242,-241 -648,-107 -711,233c-39,211 99,424 312,481c71,19 132,19 204,1zm-9,-917c46,-12 84,-26 84,-31c0,-5 -12,-28 -26,-53l-26,-44l-124,0l-123,0l-26,43c-14,24 -25,48 -25,54c0,10 125,49 164,52c10,0 56,-9 102,-21zm-580,-190c79,-29 157,-90 203,-159c57,-86 74,-150 69,-264c-3,-80 -8,-101 -38,-161c-131,-268 -483,-323 -681,-106c-160,175 -156,426 10,593c118,117 284,154 437,97zm404,-75l62,-108l-27,-52c-15,-29 -30,-53 -34,-53c-4,0 -36,30 -72,68c-62,63 -67,72 -88,152c-12,47 -21,88 -21,93c0,4 26,7 59,7l58,0l63,-107zm180,97c0,-8 -84,-157 -95,-168c-4,-4 -95,155 -95,168c0,6 36,10 95,10c55,0 95,-4 95,-10zm170,5c0,-3 -10,-45 -21,-93c-21,-83 -24,-90 -88,-154c-36,-38 -69,-68 -72,-68c-8,0 -59,88 -59,102c0,4 27,56 61,113l61,105l59,0c32,0 59,-2 59,-5zm429,-5c181,-30 323,-176 352,-363c25,-158 -54,-328 -194,-418c-164,-106 -377,-81 -517,60c-99,100 -146,245 -120,373c39,200 190,333 405,357c6,0 39,-4 74,-9z"/>
   <path stroke="#645A73" fill="#826a93" id="svg_3" d="m1044,1999c-63,-15 -145,-69 -186,-124c-126,-165 -70,-405 117,-503c44,-24 61,-27 150,-27c85,0 106,3 143,23c67,36 129,98 159,161c24,48 28,68 28,141c0,102 -28,173 -95,240c-78,78 -209,115 -316,89zm211,-56c84,-44 165,-154 165,-225l0,-28l-300,0l-299,0l6,33c18,93 79,173 166,217c57,29 68,31 142,28c55,-3 93,-11 120,-25zm165,-311c0,-78 -78,-185 -168,-229c-77,-38 -184,-39 -252,-4c-88,45 -149,121 -169,210l-9,41l299,0c283,0 299,-1 299,-18z"/>
   <path stroke="#645A73" fill="#826a93" id="svg_4" d="m477,908c-20,-31 -227,-391 -227,-394c0,-2 51,-5 113,-6l112,-3l3,-47l3,-48l-55,0c-49,0 -56,-2 -56,-20c0,-18 7,-20 55,-20l55,0l0,-55c0,-42 3,-55 15,-55c12,0 15,13 15,55l0,55l45,0c38,0 45,3 45,20c0,17 -7,20 -45,20l-45,0l0,50l0,50l110,0c61,0 110,2 110,5c0,4 -228,404 -236,413c-1,2 -9,-7 -17,-20zm190,-355c4,-10 -33,-13 -176,-13c-100,0 -181,2 -181,5c0,5 135,242 167,293c14,23 17,20 100,-124c47,-82 88,-154 90,-161z"/>
   <path stroke="#645A73" fill="#826a93" id="svg_5" d="m1550,906c0,-21 38,-65 72,-82l30,-16l-35,-36c-64,-66 -83,-145 -51,-220c26,-64 95,-122 144,-122c16,0 20,-6 20,-30c0,-28 -3,-30 -35,-30c-29,0 -35,-4 -35,-21c0,-18 5,-21 35,-17c34,4 35,3 35,-29c0,-26 4,-33 20,-33c16,0 20,7 20,35c0,33 2,35 35,35c24,0 35,5 35,15c0,11 -11,15 -36,15c-32,0 -35,2 -32,26c2,20 12,29 39,38c88,30 139,101 139,191c0,59 -31,128 -71,157l-28,21l37,25c44,29 61,51 62,75c0,26 -18,21 -48,-14c-35,-42 -79,-59 -150,-59c-67,0 -141,32 -157,68c-11,24 -45,31 -45,8zm277,-133c44,-21 84,-81 90,-135c6,-58 -29,-125 -83,-156c-31,-18 -50,-22 -92,-19c-91,6 -152,72 -152,162c0,123 125,202 237,148z"/>
  </g>
 </g>
</svg>