<svg width="351" height="351" xmlns="http://www.w3.org/2000/svg" style="vector-effect: non-scaling-stroke;" preserveAspectRatio="xMidYMid meet" version="1.0">
 <title style="vector-effect: non-scaling-stroke;">Threeprimesdef2</title>
 <metadata style="vector-effect: non-scaling-stroke;">Created by potrace 1.16, written by Peter Selinger 2001-2019</metadata>

 <g>
  <title>Layer 1</title>
  <g stroke-width="0" id="svg_1" fill="#000000" transform="translate(0, 225) scale(0.1, -0.1)">
   <path stroke="#645A73" fill="#7f20e5" id="svg_2" d="m1530.67023,2081.86746c-236.7918,-74.10851 -426.22524,-262.60191 -499.71235,-494.59378c-53.89055,-170.77179 -44.09227,-289.98984 65.32188,-708.86405c66.95492,-254.54663 91.45063,-373.76468 78.38625,-376.98679c-11.43133,-3.22211 -173.10297,-46.72058 -362.53641,-96.66328c-387.03211,-103.1075 -478.48274,-140.16175 -592.79602,-241.6582c-333.14157,-294.823 -334.77461,-803.91627 -4.89914,-1108.4056c235.15875,-217.49238 610.75954,-251.32453 888.37751,-80.55273c37.56008,22.55477 195.96563,164.32757 351.10508,315.76671l282.51711,275.49035l93.08367,-88.60801c50.62445,-48.33164 184.5343,-173.9939 297.21454,-281.93456c112.68024,-107.94066 236.7918,-214.27027 277.61797,-236.82503c297.21454,-165.93863 692.41188,-103.1075 916.13931,148.21703c267.81969,299.65617 256.38836,742.69619 -27.7618,1027.85287c-117.57938,117.60699 -228.62657,165.93863 -618.92477,269.04613c-187.80039,49.94269 -351.10508,95.05222 -360.90336,98.27433c-13.06438,3.22211 13.06438,130.49543 76.7532,386.65312c102.88195,409.20788 112.68024,501.038 71.85406,657.3103c-66.95492,254.54663 -241.69094,443.04003 -489.91407,526.81487c-111.04719,37.05426 -336.40766,41.88742 -440.92266,9.66633zm375.60079,-49.94269c514.40977,-132.10648 694.04493,-779.75045 318.44414,-1151.90408c-395.19735,-388.26417 -1058.21439,-172.38285 -1161.09634,375.37573c-63.68883,339.93253 161.67164,683.08717 509.51063,774.91729c115.94633,30.61004 215.56219,30.61004 333.14157,1.61105zm-14.69742,-1477.33711c75.12016,-19.33266 137.17594,-41.88742 137.17594,-49.94269c0,-8.05527 -19.59656,-45.10953 -42.45922,-85.3859l-42.45922,-70.8864l-202.49782,0l-200.86477,0l-42.45922,69.27535c-22.86266,38.66531 -40.82617,77.33062 -40.82617,86.99695c0,16.11055 204.13086,78.94168 267.81969,83.77484c16.33047,0 91.45063,-14.49949 166.57078,-33.83215zm-947.1672,-306.10038c129.0107,-46.72058 256.38836,-144.99492 331.50852,-256.15769c93.08367,-138.5507 120.84547,-241.6582 112.68024,-425.31843c-4.89914,-128.88437 -13.06438,-162.71652 -62.05578,-259.3798c-213.92914,-431.76265 -788.76165,-520.37065 -1112.10494,-170.77179c-261.2875,281.93456 -254.75532,686.30928 16.33047,955.35541c192.69953,188.49339 463.78532,248.10242 713.64149,156.2723zm659.75095,-120.8291l101.24891,-173.9939l-44.09227,-83.77484c-24.4957,-46.72058 -48.99141,-85.3859 -55.52359,-85.3859c-6.53219,0 -58.78969,48.33164 -117.57938,109.55172c-101.24891,101.49644 -109.41414,115.99593 -143.70813,244.88031c-19.59656,75.71957 -34.29398,141.77281 -34.29398,149.82808c0,6.44422 42.45922,11.27738 96.34977,11.27738l94.71672,0l102.88195,-172.38285zm293.94844,156.2723c0,-12.88844 -137.17594,-252.93558 -155.13946,-270.65718c-6.53219,-6.44422 -155.13946,249.71347 -155.13946,270.65718c0,9.66633 58.78969,16.11055 155.13946,16.11055c89.81758,0 155.13946,-6.44422 155.13946,-16.11055zm277.61797,8.05527c0,-4.83316 -16.33047,-72.49746 -34.29398,-149.82808c-34.29398,-133.71754 -39.19313,-144.99492 -143.70813,-248.10242c-58.78969,-61.22008 -112.68024,-109.55172 -117.57938,-109.55172c-13.06438,0 -96.34977,141.77281 -96.34977,164.32757c0,6.44422 44.09227,90.21906 99.61586,182.04918l99.61586,169.16074l96.34977,0c52.2575,0 96.34977,-3.22211 96.34977,-8.05527zm700.57712,-8.05527c295.58149,-48.33164 527.47415,-283.54562 574.83251,-584.81284c40.82617,-254.54663 -88.18453,-528.42593 -316.8111,-673.42084c-267.81969,-170.77179 -615.65868,-130.49543 -844.28525,96.66328c-161.67164,161.10547 -238.42485,394.70839 -195.96563,600.92338c63.68883,322.21093 310.27891,536.4812 661.38399,575.14651c9.79828,0 63.68883,-6.44422 120.84547,-14.49949z"/>
   <path stroke="#645A73" fill="#7f20e5" id="svg_3" d="m1610.68952,1893.37407c-102.88195,-24.16582 -236.7918,-111.16277 -303.74672,-199.77078c-205.76391,-265.82402 -114.31328,-652.47713 191.06649,-810.36049c71.85406,-38.66531 99.61586,-43.49848 244.95703,-43.49848c138.80899,0 173.10297,4.83316 233.52571,37.05426c109.41414,57.99797 210.66305,157.88336 259.65446,259.3798c39.19313,77.33062 45.72531,109.55172 45.72531,227.15871c0,164.32757 -45.72531,278.71245 -155.13946,386.65312c-127.37766,125.66226 -341.3068,185.27128 -516.04282,143.38386zm344.5729,-90.21906c137.17594,-70.8864 269.45274,-248.10242 269.45274,-362.4873l0,-45.10953l-489.91407,0l-488.28102,0l9.79828,53.1648c29.39484,149.82808 129.0107,278.71245 271.08578,349.59886c93.08367,46.72058 111.04719,49.94269 231.89266,45.10953c89.81758,-4.83316 151.87336,-17.7216 195.96563,-40.27637zm269.45274,-501.038c0,-125.66226 -127.37766,-298.04511 -274.35188,-368.93151c-125.74461,-61.22008 -300.48063,-62.83113 -411.52782,-6.44422c-143.70813,72.49746 -243.32399,194.93761 -275.98493,338.32148l-14.69742,66.05324l488.28102,0c462.15227,0 488.28102,-1.61105 488.28102,-28.99898z"/>
   <path stroke="#645A73" fill="#7f20e5" id="svg_4" d="m684.75193,135.71345c-32.66094,-49.94269 -370.70165,-629.92237 -370.70165,-634.75553c0,-3.22211 83.28539,-8.05527 184.5343,-9.66633l182.90125,-4.83316l4.89914,-75.71957l4.89914,-77.33062l-89.81758,0c-80.0193,0 -91.45063,-3.22211 -91.45063,-32.22109c0,-28.99898 11.43133,-32.22109 89.81758,-32.22109l89.81758,0l0,-88.60801c0,-67.6643 4.89914,-88.60801 24.4957,-88.60801c19.59656,0 24.4957,20.94371 24.4957,88.60801l0,88.60801l73.48711,0c62.05578,0 73.48711,4.83316 73.48711,32.22109c0,27.38793 -11.43133,32.22109 -73.48711,32.22109l-73.48711,0l0,80.55273l0,80.55273l179.63516,0c99.61586,0 179.63516,3.22211 179.63516,8.05527c0,6.44422 -372.33469,650.86608 -385.39907,665.36557c-1.63305,3.22211 -14.69742,-11.27738 -27.7618,-32.22109zm310.27891,-571.9244c6.53219,-16.11055 -53.89055,-20.94371 -287.41625,-20.94371c-163.30469,0 -295.58149,3.22211 -295.58149,8.05527c0,8.05527 220.46133,389.87523 272.71883,472.03901c22.86266,37.05426 27.7618,32.22109 163.30469,-199.77078c76.7532,-132.10648 143.70813,-248.10242 146.97422,-259.3798z"/>
   <path stroke="#645A73" fill="#7f20e5" id="svg_5" d="m2437.01125,132.49134c0,-33.83215 62.05578,-104.71855 117.57938,-132.10648l48.99141,-25.77687l-57.15664,-57.99797c-104.515,-106.32961 -135.54289,-233.60292 -83.28539,-354.43202c42.45922,-103.1075 155.13946,-196.54867 235.15875,-196.54867c26.12875,0 32.66094,-9.66633 32.66094,-48.33164c0,-45.10953 -4.89914,-48.33164 -57.15664,-48.33164c-47.35836,0 -57.15664,-6.44422 -57.15664,-33.83215c0,-28.99898 8.16523,-33.83215 57.15664,-27.38793c55.52359,6.44422 57.15664,4.83316 57.15664,-46.72058c0,-41.88742 6.53219,-53.1648 32.66094,-53.1648c26.12875,0 32.66094,11.27738 32.66094,56.38691c0,53.1648 3.26609,56.38691 57.15664,56.38691c39.19313,0 57.15664,8.05527 57.15664,24.16582c0,17.7216 -17.96352,24.16582 -58.78969,24.16582c-52.2575,0 -57.15664,3.22211 -52.2575,41.88742c3.26609,32.22109 19.59656,46.72058 63.68883,61.22008c143.70813,48.33164 226.99352,162.71652 226.99352,307.71144c0,95.05222 -50.62445,206.215 -115.94633,252.93558l-45.72531,33.83215l60.42274,40.27637c71.85406,46.72058 99.61586,82.16379 101.24891,120.8291c0,41.88742 -29.39484,33.83215 -78.38625,-22.55477c-57.15664,-67.6643 -129.0107,-95.05222 -244.95703,-95.05222c-109.41414,0 -230.25961,51.55375 -256.38836,109.55172c-17.96352,38.66531 -73.48711,49.94269 -73.48711,12.88844zm452.35399,-214.27027c71.85406,-33.83215 137.17594,-130.49543 146.97422,-217.49238c9.79828,-93.44117 -47.35836,-201.38183 -135.54289,-251.32453c-50.62445,-28.99898 -81.65234,-35.4432 -150.24031,-30.61004c-148.60727,9.66633 -248.22313,115.99593 -248.22313,260.99085c0,198.15972 204.13086,325.43304 387.03211,238.43609z"/>
  </g>
 </g>
</svg>