<?xml version="1.0" encoding="UTF-8"?>
<!DOCTYPE svg PUBLIC "-//W3C//DTD SVG 1.1//EN" "http://www.w3.org/Graphics/SVG/1.1/DTD/svg11.dtd">
<svg xmlns="http://www.w3.org/2000/svg" version="1.1" width="225px" height="225px" style="shape-rendering:geometricPrecision; text-rendering:geometricPrecision; image-rendering:optimizeQuality; fill-rule:evenodd; clip-rule:evenodd" xmlns:xlink="http://www.w3.org/1999/xlink">
<g><path style="opacity:1" fill="#fdfdfd" d="M -0.5,-0.5 C 74.5,-0.5 149.5,-0.5 224.5,-0.5C 224.5,74.5 224.5,149.5 224.5,224.5C 149.5,224.5 74.5,224.5 -0.5,224.5C -0.5,149.5 -0.5,74.5 -0.5,-0.5 Z"/></g>
<g><path style="opacity:1" fill="#1e1b1b" d="M 103.5,11.5 C 127.047,9.01774 143.88,18.3511 154,39.5C 156.962,47.2358 157.962,55.2358 157,63.5C 153.151,79.2221 149.485,94.8888 146,110.5C 158.656,114.54 171.49,118.04 184.5,121C 210.706,129.235 222.539,147.068 220,174.5C 212.471,202.351 194.304,214.851 165.5,212C 158.51,210.338 152.176,207.338 146.5,203C 135.304,191.47 123.804,180.303 112,169.5C 100.529,179.97 89.3625,190.803 78.5,202C 61.3769,214.362 43.3769,215.696 24.5,206C 3.84039,190.06 -1.65961,169.893 8,145.5C 12.8333,136.667 19.6667,129.833 28.5,125C 45.1285,119.874 61.7952,114.874 78.5,110C 74.2822,94.9626 70.4489,79.796 67,64.5C 65.2337,37.1187 77.4004,19.452 103.5,11.5 Z"/></g>
<g><path style="opacity:1" fill="#ebebeb" d="M 144.5,114.5 C 151.508,116.169 158.508,118.002 165.5,120C 158.174,120.5 150.841,120.666 143.5,120.5C 143.517,118.435 143.85,116.435 144.5,114.5 Z"/></g>
<g><path style="opacity:1" fill="#e8e7e7" d="M 75.5,114.5 C 79.4851,114.44 81.1518,116.44 80.5,120.5C 72.8261,120.666 65.1594,120.5 57.5,120C 63.6432,118.227 69.6432,116.394 75.5,114.5 Z"/></g>
<g><path style="opacity:1" fill="#efefef" d="M 86.5,111.5 C 87.8734,111.343 89.2068,111.51 90.5,112C 91.9164,114.835 93.583,117.502 95.5,120C 91.7887,120.825 88.122,120.659 84.5,119.5C 83.8333,117.5 83.1667,115.5 82.5,113.5C 83.9492,112.828 85.2825,112.161 86.5,111.5 Z"/></g>
<g><path style="opacity:1" fill="#f1f1f1" d="M 133.5,111.5 C 135.861,111.674 138.194,112.007 140.5,112.5C 140.425,115.206 140.092,117.873 139.5,120.5C 135.818,120.665 132.152,120.499 128.5,120C 130.052,117.057 131.719,114.223 133.5,111.5 Z"/></g>
<g><path style="opacity:1" fill="#f8f8f8" d="M 108.5,105.5 C 115.519,106.671 122.519,108.004 129.5,109.5C 128.55,113.301 126.883,116.801 124.5,120C 116.167,120.667 107.833,120.667 99.5,120C 96.8855,116.938 95.2188,113.438 94.5,109.5C 99.4366,108.739 104.103,107.405 108.5,105.5 Z"/></g>
<g><path style="opacity:1" fill="#ececec" d="M 136.5,95.5 C 137.239,95.369 137.906,95.5357 138.5,96C 136.5,99.3333 134.5,102.667 132.5,106C 127.885,106.24 123.552,105.24 119.5,103C 125.916,101.928 131.582,99.4275 136.5,95.5 Z"/></g>
<g><path style="opacity:1" fill="#ececec" d="M 85.5,95.5 C 91.1143,98.8036 97.1143,101.304 103.5,103C 99.7421,105.032 95.7421,106.032 91.5,106C 89.0969,102.689 87.0969,99.1894 85.5,95.5 Z"/></g>
<g><path style="opacity:1" fill="#f1f1f1" d="M 76.5,88.5 C 81.0061,94.681 84.6727,101.348 87.5,108.5C 85.5,108.833 83.5,109.167 81.5,109.5C 79.9896,102.459 78.323,95.4587 76.5,88.5 Z"/></g>
<g><path style="opacity:1" fill="#ededed" d="M 146.5,88.5 C 147.097,88.7352 147.43,89.2352 147.5,90C 145.128,96.322 143.461,102.822 142.5,109.5C 139.944,109.868 137.944,109.034 136.5,107C 139.711,100.742 143.045,94.5757 146.5,88.5 Z"/></g>
<g><path style="opacity:1" fill="#f7f7f7" d="M 105.5,14.5 C 129.741,13.5965 145.574,24.5965 153,47.5C 156.444,73.3557 145.944,90.5224 121.5,99C 93.977,102.138 76.8104,90.3049 70,63.5C 68.6527,37.5024 80.486,21.1691 105.5,14.5 Z"/></g>
<g><path style="opacity:1" fill="#1d1b1b" d="M 105.5,23.5 C 131.703,22.8729 144.87,35.5396 145,61.5C 142.501,76.3337 134.001,85.8337 119.5,90C 98.3021,92.8233 84.8021,83.99 79,63.5C 77.2792,43.0723 86.1125,29.739 105.5,23.5 Z"/></g>
<g><path style="opacity:1" fill="#fcfcfc" d="M 141.5,59.5 C 138.907,76.9217 128.74,86.255 111,87.5C 95.2999,85.6333 85.7999,76.9666 82.5,61.5C 101.805,59.5122 121.472,58.8455 141.5,59.5 Z"/></g>
<g><path style="opacity:1" fill="#717070" d="M 141.5,59.5 C 121.472,58.8455 101.805,59.5122 82.5,61.5C 81.596,60.791 81.2627,59.791 81.5,58.5C 101.674,58.1695 121.674,58.5029 141.5,59.5 Z"/></g>
<g><path style="opacity:1" fill="#fcfcfc" d="M 104.5,27.5 C 122.509,25.2509 134.676,32.5842 141,49.5C 141.495,51.4727 141.662,53.4727 141.5,55.5C 121.5,55.5 101.5,55.5 81.5,55.5C 83.5176,41.4353 91.1842,32.1019 104.5,27.5 Z"/></g>
<g><path style="opacity:1" fill="#9f9e9e" d="M 81.5,124.5 C 77.2984,124.183 73.2984,124.517 69.5,125.5C 68.7109,125.217 68.0442,124.717 67.5,124C 72.3522,123.185 77.0189,123.352 81.5,124.5 Z"/></g>
<g><path style="opacity:1" fill="#979696" d="M 121.5,124.5 C 114.978,124.177 108.645,124.51 102.5,125.5C 101.957,125.44 101.624,125.107 101.5,124.5C 105,124.167 108.5,123.833 112,123.5C 115.93,123.458 119.096,123.791 121.5,124.5 Z"/></g>
<g><path style="opacity:1" fill="#9e9d9d" d="M 142.5,124.5 C 146.981,123.352 151.648,123.185 156.5,124C 155.956,124.717 155.289,125.217 154.5,125.5C 150.702,124.517 146.702,124.183 142.5,124.5 Z"/></g>
<g><path style="opacity:1" fill="#fbfbfb" d="M 43.5,123.5 C 67.241,123.097 82.741,134.097 90,156.5C 93.6255,184.11 82.1255,201.61 55.5,209C 29.0416,210.52 12.8749,198.353 7,172.5C 6.08406,146.304 18.2507,129.97 43.5,123.5 Z"/></g>
<g><path style="opacity:1" fill="#f1f1f1" d="M 69.5,125.5 C 73.2984,124.517 77.2984,124.183 81.5,124.5C 83.2895,128.321 84.1228,132.321 84,136.5C 79.5739,132.233 74.7405,128.567 69.5,125.5 Z"/></g>
<g><path style="opacity:1" fill="#f6f6f6" d="M 85.5,123.5 C 89.5138,123.334 93.5138,123.501 97.5,124C 101.207,130.582 105.041,137.082 109,143.5C 108.565,148.044 106.732,152.044 103.5,155.5C 98.8482,151.349 94.3482,147.015 90,142.5C 88.0244,136.265 86.5244,129.932 85.5,123.5 Z"/></g>
<g><path style="opacity:1" fill="#f8f8f8" d="M 121.5,124.5 C 118.864,130.435 115.698,136.102 112,141.5C 108.57,136.304 105.403,130.971 102.5,125.5C 108.645,124.51 114.978,124.177 121.5,124.5 Z"/></g>
<g><path style="opacity:1" fill="#f6f6f6" d="M 126.5,123.5 C 130.555,123.176 134.555,123.509 138.5,124.5C 136.688,130.415 135.188,136.415 134,142.5C 129.652,147.015 125.152,151.349 120.5,155.5C 117.996,152.496 115.996,149.163 114.5,145.5C 118.088,137.92 122.088,130.586 126.5,123.5 Z"/></g>
<g><path style="opacity:1" fill="#f3f3f3" d="M 142.5,124.5 C 146.702,124.183 150.702,124.517 154.5,125.5C 149.068,128.308 144.235,131.974 140,136.5C 139.901,132.239 140.734,128.239 142.5,124.5 Z"/></g>
<g><path style="opacity:1" fill="#fafafa" d="M 169.5,123.5 C 191.247,122.951 206.414,132.618 215,152.5C 220.511,174.31 214.011,191.477 195.5,204C 171.767,214.31 152.6,208.81 138,187.5C 127.283,162.321 133.45,142.488 156.5,128C 160.846,126.164 165.179,124.664 169.5,123.5 Z"/></g>
<g><path style="opacity:1" fill="#1f1d1d" d="M 154.5,132.5 C 155.833,132.5 157.167,132.5 158.5,132.5C 159.637,137.106 162.637,139.94 167.5,141C 173.253,141.851 178.92,141.517 184.5,140C 187.638,138.695 189.971,136.529 191.5,133.5C 192.325,132.614 193.325,132.281 194.5,132.5C 193.875,138.629 190.541,142.462 184.5,144C 194.322,150.501 197.156,159.334 193,170.5C 189.503,177.162 184.003,180.829 176.5,181.5C 176.5,183.5 176.5,185.5 176.5,187.5C 178.833,187.5 181.167,187.5 183.5,187.5C 183.5,188.5 183.5,189.5 183.5,190.5C 181.167,190.5 178.833,190.5 176.5,190.5C 176.5,192.833 176.5,195.167 176.5,197.5C 175.167,197.5 173.833,197.5 172.5,197.5C 172.5,195.5 172.5,193.5 172.5,191.5C 170.167,191.5 167.833,191.5 165.5,191.5C 165.5,190.167 165.5,188.833 165.5,187.5C 167.833,187.5 170.167,187.5 172.5,187.5C 172.5,185.5 172.5,183.5 172.5,181.5C 158.828,178.862 152.995,170.528 155,156.5C 157.055,151.112 160.555,146.946 165.5,144C 159.557,142.226 155.89,138.393 154.5,132.5 Z"/></g>
<g><path style="opacity:1" fill="#fbfbfb" d="M 169.5,145.5 C 184.303,144.14 191.47,150.807 191,165.5C 187.444,175.699 180.278,179.866 169.5,178C 158.311,172.332 155.478,163.832 161,152.5C 163.441,149.546 166.275,147.213 169.5,145.5 Z"/></g>
<g><path style="opacity:1" fill="#ececec" d="M 111.5,149.5 C 113.725,152.262 115.725,155.262 117.5,158.5C 113.833,165.167 110.167,165.167 106.5,158.5C 108.432,155.634 110.099,152.634 111.5,149.5 Z"/></g>
<g><path style="opacity:1" fill="#f2f2f2" d="M 130.5,150.5 C 131.124,150.917 131.457,151.584 131.5,152.5C 129.982,158.733 129.148,165.066 129,171.5C 126.7,167.732 124.533,163.898 122.5,160C 124.988,156.679 127.655,153.512 130.5,150.5 Z"/></g>
<g><path style="opacity:1" fill="#f3f2f2" d="M 92.5,150.5 C 95.8123,153.146 98.8123,156.146 101.5,159.5C 99.5875,163.66 97.4209,167.66 95,171.5C 94.6609,164.423 93.8276,157.423 92.5,150.5 Z"/></g>
<g><path style="opacity:1" fill="#f6f6f6" d="M 103.5,162.5 C 105.729,163.055 107.395,164.389 108.5,166.5C 103.848,171.652 99.0151,176.652 94,181.5C 97.1049,175.29 100.272,168.957 103.5,162.5 Z"/></g>
<g><path style="opacity:1" fill="#eeeeee" d="M 118.5,162.5 C 123.313,167.8 126.813,173.8 129,180.5C 124.634,175.799 119.967,171.466 115,167.5C 115.749,165.775 116.915,164.108 118.5,162.5 Z"/></g>
<g><path style="opacity:1" fill="#1a1818" d="M 72.5,172.5 C 65.1667,173.167 57.8333,173.833 50.5,174.5C 50.5,177.5 50.5,180.5 50.5,183.5C 53.5,183.5 56.5,183.5 59.5,183.5C 59.5,184.833 59.5,186.167 59.5,187.5C 56.5,187.5 53.5,187.5 50.5,187.5C 50.5,191.167 50.5,194.833 50.5,198.5C 49.5,198.5 48.5,198.5 47.5,198.5C 47.5,194.5 47.5,190.5 47.5,186.5C 43.8333,186.5 40.1667,186.5 36.5,186.5C 36.5,185.5 36.5,184.5 36.5,183.5C 39.8333,183.5 43.1667,183.5 46.5,183.5C 47.4794,180.375 47.8128,177.042 47.5,173.5C 39.6484,173.825 31.9818,173.492 24.5,172.5C 32.4371,158.873 40.4371,145.206 48.5,131.5C 56.7639,145.03 64.7639,158.697 72.5,172.5 Z"/></g>
<g><path style="opacity:1" fill="#f8f8f8" d="M 47.5,138.5 C 54.5352,148.204 60.8685,158.538 66.5,169.5C 54.5,170.833 42.5,170.833 30.5,169.5C 36.6247,159.386 42.2914,149.053 47.5,138.5 Z"/></g>
<g><path style="opacity:1" fill="#9d9c9c" d="M 24.5,172.5 C 31.9818,173.492 39.6484,173.825 47.5,173.5C 47.8128,177.042 47.4794,180.375 46.5,183.5C 46.5,180.5 46.5,177.5 46.5,174.5C 38.8045,174.831 31.1378,174.497 23.5,173.5C 23.6236,172.893 23.9569,172.56 24.5,172.5 Z"/></g>
<g><path style="opacity:1" fill="#9e9d9d" d="M 72.5,172.5 C 73.0431,172.56 73.3764,172.893 73.5,173.5C 65.8622,174.497 58.1955,174.831 50.5,174.5C 57.8333,173.833 65.1667,173.167 72.5,172.5 Z"/></g>
<g><path style="opacity:1" fill="#8b8a8a" d="M 36.5,186.5 C 40.1667,186.5 43.8333,186.5 47.5,186.5C 47.5,190.5 47.5,194.5 47.5,198.5C 46.5184,195.038 46.185,191.371 46.5,187.5C 42.9581,187.813 39.6248,187.479 36.5,186.5 Z"/></g>
</svg>
