<?xml version="1.0" encoding="UTF-8"?>
<svg version="1.1" xmlns="http://www.w3.org/2000/svg" width="225" height="225">
<path d="M0 0 C74.25 0 148.5 0 225 0 C225 74.25 225 148.5 225 225 C150.75 225 76.5 225 0 225 C0 150.75 0 76.5 0 0 Z " fill="#FEFEFE" transform="translate(0,0)"/>
<path d="M0 0 C1.40265419 1.19751281 2.77926064 2.42636508 4.125 3.6875 C4.75019531 4.27144531 5.37539062 4.85539062 6.01953125 5.45703125 C15.38346155 15.14737306 18.46499273 26.78835314 18.2734375 39.828125 C17.93004811 48.75624902 15.53693508 57.00504111 13.09423828 65.54174805 C10.73959033 73.84392696 8.9107343 82.2476608 7.125 90.6875 C8.19645264 90.97415527 8.19645264 90.97415527 9.28955078 91.26660156 C16.18327227 93.11247962 23.07430117 94.96806693 29.96289062 96.83300781 C32.48966492 97.51581433 35.01791562 98.19255256 37.546875 98.8671875 C53.134857 103.13448574 66.16650462 108.60349732 75.125 122.6875 C81.52611795 134.76007478 83.30361596 147.19523548 79.5 160.5 C75.15317019 172.93040804 67.9097639 182.59555431 56.125 188.6875 C55.37089844 189.08195313 54.61679688 189.47640625 53.83984375 189.8828125 C43.21550546 194.57919697 29.86969491 194.47787308 19 190.625 C9.43345016 186.6897295 2.14910194 178.97587749 -4.9375 171.6875 C-12.23614373 164.21970315 -19.82382243 157.3297215 -27.875 150.6875 C-33.78112273 155.90885488 -39.49594154 161.26860162 -45.03125 166.8828125 C-45.94173096 167.80553955 -46.85221191 168.7282666 -47.7902832 169.67895508 C-49.60816696 171.52885792 -51.41945988 173.38526574 -53.22338867 175.2487793 C-63.0748877 185.2704347 -73.11550531 192.65007505 -87.56079102 193.109375 C-101.55876266 193.2014007 -112.72493447 189.72463391 -123.125 179.9375 C-131.95172451 170.57582249 -136.47359563 159.75368399 -136.375 146.9375 C-136.36927979 146.06569092 -136.36355957 145.19388184 -136.35766602 144.2956543 C-136.00384756 131.39736331 -130.86004716 121.87627771 -122 112.7578125 C-113.40774639 104.68525165 -102.79422266 101.44206183 -91.66845703 98.35522461 C-89.47781753 97.74380879 -87.29590153 97.10617737 -85.11328125 96.46679688 C-83.71399049 96.07132515 -82.31426509 95.67738735 -80.9140625 95.28515625 C-79.03001709 94.75160522 -79.03001709 94.75160522 -77.10791016 94.20727539 C-73.75219819 93.66775638 -72.60268559 93.76446031 -69.875 95.6875 C-69.875 96.3475 -69.875 97.0075 -69.875 97.6875 C-74.33 98.6775 -74.33 98.6775 -78.875 99.6875 C-72.275 100.0175 -65.675 100.3475 -58.875 100.6875 C-59.205 98.7075 -59.535 96.7275 -59.875 94.6875 C-58.885 94.3575 -57.895 94.0275 -56.875 93.6875 C-56.215 95.6675 -55.555 97.6475 -54.875 99.6875 C-51.575 99.6875 -48.275 99.6875 -44.875 99.6875 C-47.61117603 93.87899409 -47.61117603 93.87899409 -52.875 90.6875 C-52.7821875 90.02363281 -52.689375 89.35976562 -52.59375 88.67578125 C-52.99975534 84.3619745 -55.07900374 81.47757671 -57.375 77.875 C-58.01888672 76.83569336 -58.01888672 76.83569336 -58.67578125 75.77539062 C-59.73228725 74.07324207 -60.8023302 72.3795089 -61.875 70.6875 C-61.875 72.3375 -61.875 73.9875 -61.875 75.6875 C-63.36 76.1825 -63.36 76.1825 -64.875 76.6875 C-65.04628418 76.02741943 -65.21756836 75.36733887 -65.39404297 74.68725586 C-66.17848614 71.66627571 -66.96423262 68.64563598 -67.75 65.625 C-68.01941406 64.58666016 -68.28882812 63.54832031 -68.56640625 62.47851562 C-68.83066406 61.46337891 -69.09492187 60.44824219 -69.3671875 59.40234375 C-69.62516113 58.4067041 -69.88313477 57.41106445 -70.14892578 56.38525391 C-70.7243819 54.24712678 -71.37301485 52.12871352 -72.046875 50.01953125 C-75.06116922 37.89126252 -73.69602086 24.74242347 -67.296875 14.05078125 C-65.59679136 11.48916874 -63.79909828 9.08440021 -61.875 6.6875 C-61.12476562 5.73037109 -61.12476562 5.73037109 -60.359375 4.75390625 C-45.36961196 -12.24206245 -17.52562835 -12.84230918 0 0 Z " fill="#F8F8F8" transform="translate(139.875,20.3125)"/>
<path d="M0 0 C11.12717135 5.61060189 18.68133492 13.44391966 23.75 24.875 C27.31675371 35.79236788 26.97863093 49.06334341 21.859375 59.359375 C15.14060795 70.55732009 5.86276632 78.89170222 -7 82.1875 C-19.34763295 84.54246092 -29.82309379 82.32862321 -40.37109375 75.59375 C-49.56289204 69.02153672 -55.62377905 59.8674663 -58.21484375 48.8515625 C-60.19096979 36.66817383 -58.26431034 25.96675845 -51.4375 15.625 C-39.44310682 -0.26566102 -19.10357484 -7.5473968 0 0 Z " fill="#FAFAFA" transform="translate(65.6875,127.0625)"/>
<path d="M0 0 C0.88341064 0.00572021 1.76682129 0.01144043 2.67700195 0.01733398 C14.94652679 0.35094644 24.61895618 5.43968666 33.0234375 14.3046875 C41.8390856 25.08931284 43.65004081 36.67735574 42.59912109 50.20166016 C41.22744377 61.20078309 34.32105183 70.38562793 26 77.3125 C16.39178639 84.40349326 6.03817556 86.41301145 -5.6875 85.5 C-17.67815099 83.04568673 -27.55067807 76.4037716 -34.6875 66.5 C-41.1316425 56.21015955 -43.12302898 44.91707996 -41.0625 33 C-38.25378206 22.02046622 -31.29452674 12.12638926 -21.6875 6.1875 C-20.04646934 5.24552681 -18.37687792 4.35223083 -16.6875 3.5 C-15.62917969 2.95988281 -14.57085937 2.41976562 -13.48046875 1.86328125 C-9.05777909 0.01641098 -4.74106908 -0.03558617 0 0 Z " fill="#FBFBFB" transform="translate(174.6875,124.5)"/>
<path d="M0 0 C12.69215511 2.25183397 22.95491894 7.97016057 30.8203125 18.41796875 C32.38430454 20.88970491 33.72572639 23.36782858 35 26 C35.61875 27.26263672 35.61875 27.26263672 36.25 28.55078125 C42.5638802 43.34893798 38.18491518 59.12135189 33.96923828 73.85424805 C31.61459033 82.15642696 29.7857343 90.5601608 28 99 C29.07145264 99.28665527 29.07145264 99.28665527 30.16455078 99.57910156 C37.05827227 101.42497962 43.94930117 103.28056693 50.83789062 105.14550781 C53.36466492 105.82831433 55.89291562 106.50505256 58.421875 107.1796875 C74.009857 111.44698574 87.04150462 116.91599732 96 131 C102.40111795 143.07257478 104.17861596 155.50773548 100.375 168.8125 C96.02817019 181.24290804 88.7847639 190.90805431 77 197 C76.24589844 197.39445313 75.49179688 197.78890625 74.71484375 198.1953125 C64.09050546 202.89169697 50.74469491 202.79037308 39.875 198.9375 C30.30845016 195.0022295 23.02410194 187.28837749 15.9375 180 C8.63885627 172.53220315 1.05117757 165.6422215 -7 159 C-12.90612273 164.22135488 -18.62094154 169.58110162 -24.15625 175.1953125 C-25.06673096 176.11803955 -25.97721191 177.0407666 -26.9152832 177.99145508 C-28.73316696 179.84135792 -30.54445988 181.69776574 -32.34838867 183.5612793 C-42.1998877 193.5829347 -52.24050531 200.96257505 -66.68579102 201.421875 C-80.68376266 201.5139007 -91.84993447 198.03713391 -102.25 188.25 C-111.07672451 178.88832249 -115.59859563 168.06618399 -115.5 155.25 C-115.49427979 154.37819092 -115.48855957 153.50638184 -115.48266602 152.6081543 C-115.12884756 139.70986331 -109.98504716 130.18877771 -101.125 121.0703125 C-92.53274639 112.99775165 -81.91922266 109.75456183 -70.79345703 106.66772461 C-68.60281753 106.05630879 -66.42090153 105.41867737 -64.23828125 104.77929688 C-62.83899049 104.38382515 -61.43926509 103.98988735 -60.0390625 103.59765625 C-58.15501709 103.06410522 -58.15501709 103.06410522 -56.23291016 102.51977539 C-52.87719819 101.98025638 -51.72768559 102.07696031 -49 104 C-49 104.66 -49 105.32 -49 106 C-54.445 106.99 -54.445 106.99 -60 108 C-60 108.66 -60 109.32 -60 110 C-59.38479492 109.9685791 -58.76958984 109.9371582 -58.13574219 109.90478516 C-55.34087083 109.77985409 -52.54658597 109.70197026 -49.75 109.625 C-48.78191406 109.57472656 -47.81382813 109.52445312 -46.81640625 109.47265625 C-39.77294551 109.32692948 -39.77294551 109.32692948 -37.43554688 111.36230469 C-36.328125 113.0234375 -36.328125 113.0234375 -35 116 C-34.01 114.515 -34.01 114.515 -33 113 C-32.77828125 114.16015625 -32.5565625 115.3203125 -32.328125 116.515625 C-29.72007788 128.4716307 -25.60759402 135.40758819 -16 143 C-15.34 143.33 -14.68 143.66 -14 144 C-13.67 143.01 -13.34 142.02 -13 141 C-11.02 141.99 -11.02 141.99 -9 143 C-8.34 141.35 -7.68 139.7 -7 138 C-5.515 138.99 -5.515 138.99 -4 140 C-3.29875 140.165 -2.5975 140.33 -1.875 140.5 C-1.25625 140.665 -0.6375 140.83 0 141 C0.33 141.66 0.66 142.32 1 143 C7.23388848 140.24381319 13.27499987 135.3534754 15.83251953 128.89892578 C17.28000142 124.00485793 18.12456443 119.0213663 19 114 C19.33 113.34 19.66 112.68 20 112 C18.04098546 112.11382653 16.0827662 112.24141125 14.125 112.375 C12.48917969 112.47941406 12.48917969 112.47941406 10.8203125 112.5859375 C7.86953526 112.73253491 7.86953526 112.73253491 6 115 C4.515 114.505 4.515 114.505 3 114 C3 113.34 3 112.68 3 112 C2.44014404 112.01571045 1.88028809 112.0314209 1.3034668 112.04760742 C-1.2350859 112.10999848 -3.77347729 112.14900218 -6.3125 112.1875 C-7.19357422 112.21263672 -8.07464844 112.23777344 -8.98242188 112.26367188 C-9.82998047 112.27333984 -10.67753906 112.28300781 -11.55078125 112.29296875 C-12.33106689 112.3086792 -13.11135254 112.32438965 -13.9152832 112.34057617 C-16 112 -16 112 -19 109 C-6.625 108.505 -6.625 108.505 6 108 C7.65 104.7 9.3 101.4 11 98 C9.02 97.67 7.04 97.34 5 97 C5.495 95.515 5.495 95.515 6 94 C8.64 94 11.28 94 14 94 C16.475 89.545 16.475 89.545 19 85 C18.27554688 85.34933594 17.55109375 85.69867188 16.8046875 86.05859375 C7.20210896 90.57820738 7.20210896 90.57820738 2 91 C2 90.34 2 89.68 2 89 C0.515 88.505 0.515 88.505 -1 88 C-0.26136719 87.79246094 0.47726563 87.58492188 1.23828125 87.37109375 C14.26019091 83.41653669 22.96407685 77.82035089 30 66 C30.45503906 65.26523438 30.91007813 64.53046875 31.37890625 63.7734375 C35.98367623 54.69225351 35.46461933 42.04641518 33.1171875 32.35546875 C28.98807793 21.70455367 22.07032014 13.446483 12 8 C8.81652218 6.78435215 5.65063328 5.74750313 2.37109375 4.82421875 C0 4 0 4 -1 2 C-0.67 1.34 -0.34 0.68 0 0 Z M-102.25 127.3125 C-110.23023014 137.17695115 -113.12387167 148.49692768 -112 161 C-109.66891455 172.57595844 -104.30771918 182.57514004 -95 190 C-83.97164906 197.16512621 -73.49337378 199.73452605 -60.4375 197.3125 C-48.5422918 194.23798095 -39.36214692 187.37875014 -33.0625 176.875 C-27.05893482 166.17360959 -26.37589944 154.68585426 -28.6171875 142.69921875 C-32.30211184 131.43248106 -39.78999891 122.79827222 -50 117 C-50.7115625 116.566875 -51.423125 116.13375 -52.15625 115.6875 C-69.53602936 106.87521751 -89.83729443 113.88651234 -102.25 127.3125 Z M24 127 C16.54938569 137.55361615 12.83922811 147.99935485 14 161 C16.48581603 173.45902973 22.55452447 183.63556402 33 191 C43.52301604 197.22115413 53.98938226 199.86234302 66.15625 197.34765625 C76.6438282 194.19867981 85.78883553 188.11919058 92 179 C98.31409006 167.04422948 100.22850513 154.69503867 97.1640625 141.36328125 C93.03028681 130.7514074 85.99896165 122.41398939 76 117 C75.31035156 116.5875 74.62070313 116.175 73.91015625 115.75 C57.25277884 107.3188494 35.81669399 113.25517412 24 127 Z " fill="#211E1E" transform="translate(119,12)"/>
<path d="M0 0 C0.69287109 0.00451172 1.38574219 0.00902344 2.09960938 0.01367188 C3.79561068 0.02536844 5.49156703 0.04330076 7.1875 0.0625 C6.8575 1.0525 6.5275 2.0425 6.1875 3.0625 C4.59035156 3.15724609 4.59035156 3.15724609 2.9609375 3.25390625 C-10.15131529 4.26546195 -21.95633714 7.60454928 -31.1328125 17.765625 C-38.29137283 27.55454005 -42.19974232 38.92412968 -40.8125 51.0625 C-38.17976068 63.20900189 -33.22720627 73.85655006 -22.8125 81.0625 C-14.80762559 85.70388049 -8.36139371 87.19431662 0.78710938 87.66796875 C3.80206203 87.84162044 6.3054293 88.10180977 9.1875 89.0625 C9.1875 89.7225 9.1875 90.3825 9.1875 91.0625 C11.25016324 90.27125876 13.31262379 89.47948909 15.375 88.6875 C16.52355469 88.24664062 17.67210937 87.80578125 18.85546875 87.3515625 C21.64085994 86.27397857 24.41747721 85.1788557 27.1875 84.0625 C26.37743474 85.70953306 25.5643779 87.35509506 24.75 89 C24.29753906 89.91652344 23.84507812 90.83304687 23.37890625 91.77734375 C22.1875 94.0625 22.1875 94.0625 21.1875 95.0625 C19.18791636 95.10330783 17.18704746 95.10504356 15.1875 95.0625 C14.8575 95.7225 14.5275 96.3825 14.1875 97.0625 C16.1675 97.5575 16.1675 97.5575 18.1875 98.0625 C17.48669246 104.01936412 14.31425756 107.93574244 10.1875 112.0625 C10.1875 112.7225 10.1875 113.3825 10.1875 114.0625 C12.94391416 113.56493908 12.94391416 113.56493908 15.1875 112.0625 C17.20714199 111.99005947 19.22917124 111.97872812 21.25 112 C22.35472656 112.00902344 23.45945312 112.01804687 24.59765625 112.02734375 C25.45230469 112.03894531 26.30695313 112.05054687 27.1875 112.0625 C25.52277346 126.7961078 21.78685634 134.72602387 10.1875 144.0625 C9.1975 143.7325 8.2075 143.4025 7.1875 143.0625 C6.8575 142.4025 6.5275 141.7425 6.1875 141.0625 C4.8675 141.0625 3.5475 141.0625 2.1875 141.0625 C1.1975 140.0725 1.1975 140.0725 0.1875 139.0625 C-0.4725 140.3825 -1.1325 141.7025 -1.8125 143.0625 C-3.1325 142.7325 -4.4525 142.4025 -5.8125 142.0625 C-6.1425 142.7225 -6.4725 143.3825 -6.8125 144.0625 C-13.20992183 141.33152511 -19.80197172 135.51524493 -22.70849609 129.078125 C-24.16157459 124.82189509 -25.06535765 120.49155985 -25.8125 116.0625 C-27.2975 116.5575 -27.2975 116.5575 -28.8125 117.0625 C-29.1425 115.4125 -29.4725 113.7625 -29.8125 112.0625 C-34.4325 112.0625 -39.0525 112.0625 -43.8125 112.0625 C-43.8125 111.7325 -43.8125 111.4025 -43.8125 111.0625 C-46.7825 110.7325 -49.7525 110.4025 -52.8125 110.0625 C-52.8125 109.7325 -52.8125 109.4025 -52.8125 109.0625 C-45.5525 109.0625 -38.2925 109.0625 -30.8125 109.0625 C-31.1425 107.0825 -31.4725 105.1025 -31.8125 103.0625 C-30.3275 102.5675 -30.3275 102.5675 -28.8125 102.0625 C-28.1525 104.0425 -27.4925 106.0225 -26.8125 108.0625 C-23.5125 108.0625 -20.2125 108.0625 -16.8125 108.0625 C-19.54867603 102.25399409 -19.54867603 102.25399409 -24.8125 99.0625 C-24.67328125 98.06669922 -24.67328125 98.06669922 -24.53125 97.05078125 C-24.93725534 92.7369745 -27.01650374 89.85257671 -29.3125 86.25 C-29.74175781 85.55712891 -30.17101562 84.86425781 -30.61328125 84.15039062 C-31.66978725 82.44824207 -32.7398302 80.7545089 -33.8125 79.0625 C-33.8125 80.7125 -33.8125 82.3625 -33.8125 84.0625 C-35.2975 84.5575 -35.2975 84.5575 -36.8125 85.0625 C-36.98378418 84.40241943 -37.15506836 83.74233887 -37.33154297 83.06225586 C-38.11598614 80.04127571 -38.90173262 77.02063598 -39.6875 74 C-39.95691406 72.96166016 -40.22632812 71.92332031 -40.50390625 70.85351562 C-40.76816406 69.83837891 -41.03242187 68.82324219 -41.3046875 67.77734375 C-41.56266113 66.7817041 -41.82063477 65.78606445 -42.08642578 64.76025391 C-42.6618819 62.62212678 -43.31051485 60.50371352 -43.984375 58.39453125 C-46.99866922 46.26626252 -45.63352086 33.11742347 -39.234375 22.42578125 C-37.53429136 19.86416874 -35.73659828 17.45940021 -33.8125 15.0625 C-33.06226563 14.10537109 -33.06226563 14.10537109 -32.296875 13.12890625 C-24.12522592 3.86357687 -11.99965185 -0.14927797 0 0 Z " fill="#1F1D1D" transform="translate(111.8125,11.9375)"/>
<path d="M0 0 C7.81834711 4.63116734 14.2168729 11.0187173 16.5625 20 C16.5625 21.98 16.5625 23.96 16.5625 26 C-2.9075 26 -22.3775 26 -42.4375 26 C-42.4375 17.45119755 -40.16507851 11.96102657 -34.37109375 5.67578125 C-24.7889275 -2.62876283 -11.76719512 -5.29614158 0 0 Z " fill="#FCFCFC" transform="translate(125.4375,30)"/>
<path d="M0 0 C19.47 0 38.94 0 59 0 C59 7.65151603 57.02111007 12.46427198 52.05078125 18.28125 C45.354493 24.72507496 37.84317438 28.01073954 28.5625 28.625 C20.38219425 28.28561679 13.00819622 24.15480899 7 18.75 C2.09100719 13.34890767 0 7.2020049 0 0 Z " fill="#FDFDFD" transform="translate(83,60)"/>
<path d="M0 0 C0.66 0 1.32 0 2 0 C2.37697021 0.67877197 2.75394043 1.35754395 3.14233398 2.05688477 C12.54664271 19.06986472 12.54664271 19.06986472 22.50952148 35.75805664 C25 39.79691356 25 39.79691356 25 42 C17.74 42 10.48 42 3 42 C3 45.3 3 48.6 3 52 C5.97 52 8.94 52 12 52 C12 53.32 12 54.64 12 56 C9.03 56 6.06 56 3 56 C3 59.63 3 63.26 3 67 C2.01 67 1.02 67 0 67 C0 63.37 0 59.74 0 56 C-3.63 56 -7.26 56 -11 56 C-11 54.68 -11 53.36 -11 52 C-7.37 52 -3.74 52 0 52 C0 48.7 0 45.4 0 42 C-7.59 42 -15.18 42 -23 42 C-21.37268021 37.93170053 -19.65502087 34.47588226 -17.48046875 30.703125 C-17.14002029 30.11005554 -16.79957184 29.51698608 -16.44880676 28.90594482 C-15.36476137 27.01885178 -14.27631336 25.13434529 -13.1875 23.25 C-11.76322134 20.77667485 -10.34062889 18.30238138 -8.91796875 15.828125 C-8.57700165 15.23592163 -8.23603455 14.64371826 -7.88473511 14.03356934 C-5.20936561 9.38144557 -2.58284744 4.70405296 0 0 Z " fill="#F9F9F9" transform="translate(48,132)"/>
<path d="M0 0 C7.32719208 5.25955411 12.01730227 12.58353485 14.25 21.3125 C15.35947673 30.73681921 14.04858393 39.72920504 8.5 47.5625 C2.29084708 55.12942838 -4.54965695 60.68477932 -14.53125 61.6953125 C-24.86499523 62.14877331 -33.05898302 60.64099959 -41.125 53.875 C-47.5320068 47.78963009 -52.21668119 41.71601591 -53.10546875 32.7109375 C-53.33805678 21.6574682 -51.87768193 13.96139315 -44.76953125 5.38671875 C-32.32623585 -7.39353242 -15.16310392 -9.30578451 0 0 Z M-42.25 7.6875 C-47.01015042 14.08131151 -48.75 18.14421628 -48.75 26.3125 C-29.28 26.3125 -9.81 26.3125 10.25 26.3125 C8.98249554 14.90495987 6.17076108 10.23618038 -2.515625 3.01171875 C-14.5299015 -6.12501251 -32.17817013 -3.23830048 -42.25 7.6875 Z M-48.75 30.3125 C-47.55659231 41.05316921 -45.1635098 46.02800695 -36.91015625 52.76953125 C-29.89364847 57.78132252 -23.3348398 59.4508213 -14.75 58.3125 C-5.55364479 56.28015631 1.69762014 51.70346522 6.91796875 43.78125 C9.64349145 38.71193046 10.25 36.34393192 10.25 30.3125 C-9.22 30.3125 -28.69 30.3125 -48.75 30.3125 Z " fill="#232121" transform="translate(131.75,29.6875)"/>
<path d="M0 0 C12.69215511 2.25183397 22.95491894 7.97016057 30.8203125 18.41796875 C32.38430454 20.88970491 33.72572639 23.36782858 35 26 C35.4125 26.84175781 35.825 27.68351562 36.25 28.55078125 C43.22852804 44.90670633 37.25636787 62.53496624 32.64794922 78.70019531 C31.6246869 82.33212112 30.65362965 85.97752969 29.6875 89.625 C29.36136719 90.85476562 29.03523438 92.08453125 28.69921875 93.3515625 C28.46847656 94.22554688 28.23773438 95.09953125 28 96 C27.01 95.67 26.02 95.34 25 95 C25.63085044 89.21720433 26.66833256 83.65977378 28 78 C26.51762714 80.60238792 25.03899869 83.20678228 23.5625 85.8125 C23.14162109 86.55048828 22.72074219 87.28847656 22.28710938 88.04882812 C21.88427734 88.76103516 21.48144531 89.47324219 21.06640625 90.20703125 C20.69459229 90.8616333 20.32277832 91.51623535 19.93969727 92.19067383 C18.8645343 94.14536412 18.8645343 94.14536412 18 97 C19.65 97.33 21.3 97.66 23 98 C22.505 99.485 22.505 99.485 22 101 C19.69 101 17.38 101 15 101 C13.68 103.31 12.36 105.62 11 108 C14.3 108.33 17.6 108.66 21 109 C21.185625 107.824375 21.185625 107.824375 21.375 106.625 C22 104 22 104 24 102 C24.99 102.495 24.99 102.495 26 103 C25.67 104.98 25.34 106.96 25 109 C32.26 109 39.52 109 47 109 C47 109.33 47 109.66 47 110 C42.545 110.495 42.545 110.495 38 111 C38 111.33 38 111.66 38 112 C33.38 112.33 28.76 112.66 24 113 C23.34 115.31 22.68 117.62 22 120 C21.01 119.67 20.02 119.34 19 119 C19.33 116.69 19.66 114.38 20 112 C18.04098546 112.11382653 16.0827662 112.24141125 14.125 112.375 C12.48917969 112.47941406 12.48917969 112.47941406 10.8203125 112.5859375 C7.86953526 112.73253491 7.86953526 112.73253491 6 115 C4.515 114.505 4.515 114.505 3 114 C3 113.34 3 112.68 3 112 C2.44014404 112.01571045 1.88028809 112.0314209 1.3034668 112.04760742 C-1.2350859 112.10999848 -3.77347729 112.14900218 -6.3125 112.1875 C-7.19357422 112.21263672 -8.07464844 112.23777344 -8.98242188 112.26367188 C-9.82998047 112.27333984 -10.67753906 112.28300781 -11.55078125 112.29296875 C-12.33106689 112.3086792 -13.11135254 112.32438965 -13.9152832 112.34057617 C-16 112 -16 112 -19 109 C-6.625 108.505 -6.625 108.505 6 108 C7.65 104.7 9.3 101.4 11 98 C9.02 97.67 7.04 97.34 5 97 C5.495 95.515 5.495 95.515 6 94 C8.64 94 11.28 94 14 94 C15.65 91.03 17.3 88.06 19 85 C18.27554688 85.34933594 17.55109375 85.69867188 16.8046875 86.05859375 C7.20210896 90.57820738 7.20210896 90.57820738 2 91 C2 90.34 2 89.68 2 89 C0.515 88.505 0.515 88.505 -1 88 C-0.26136719 87.79246094 0.47726563 87.58492188 1.23828125 87.37109375 C14.26019091 83.41653669 22.96407685 77.82035089 30 66 C30.45503906 65.26523438 30.91007812 64.53046875 31.37890625 63.7734375 C35.98367623 54.69225351 35.46461933 42.04641518 33.1171875 32.35546875 C28.98807793 21.70455367 22.07032014 13.446483 12 8 C8.81652218 6.78435215 5.65063328 5.74750313 2.37109375 4.82421875 C0 4 0 4 -1 2 C-0.67 1.34 -0.34 0.68 0 0 Z " fill="#1D1B1B" transform="translate(119,12)"/>
<path d="M0 0 C4.97486454 3.09755717 8.40573354 7.36621533 9.82421875 13.1484375 C10.12357644 18.37171303 8.3268402 22.90510725 5.3125 27.0625 C0.18889859 31.14046847 -3.99031666 32.42707381 -10.40625 32.34375 C-15.18729486 31.75430611 -17.93711178 28.91429203 -21 25.4375 C-24.47532242 20.54630548 -24.28555518 15.93506961 -23.6875 10.0625 C-18.6083515 -0.28391362 -10.55046275 -2.68232104 0 0 Z " fill="#FBFBFB" transform="translate(182.6875,146.9375)"/>
<path d="M0 0 C0 0.66 0 1.32 0 2 C-3.63 2.66 -7.26 3.32 -11 4 C-11 4.66 -11 5.32 -11 6 C-4.07 6 2.86 6 10 6 C10 6.33 10 6.66 10 7 C6.04 7 2.08 7 -2 7 C-1.01 8.98 -1.01 8.98 0 11 C-0.33 11.99 -0.66 12.98 -1 14 C-1.48984375 13.71125 -1.9796875 13.4225 -2.484375 13.125 C-12.00944624 8.39530945 -23.91615383 8.53825397 -34.19921875 10.66015625 C-44.58741312 14.42730366 -53.49558473 22.75683166 -58.28515625 32.65625 C-63.48999206 45.34187133 -63.32893058 57.23380804 -58 70 C-52.75555968 80.34541571 -43.94920523 87.78272374 -33.109375 91.6796875 C-22.41815033 94.85228669 -11.33442216 93.35245985 -1.5625 88.3125 C-0.73878906 87.85488281 0.08492188 87.39726562 0.93359375 86.92578125 C1.95646484 86.46751953 1.95646484 86.46751953 3 86 C3.66 86.33 4.32 86.66 5 87 C5 87.99 5 88.98 5 90 C3.46101439 90.79686606 1.91866216 91.58723141 0.375 92.375 C-0.48351562 92.81585938 -1.34203125 93.25671875 -2.2265625 93.7109375 C-8.23175778 96.5020846 -13.20875024 97.36047648 -19.75 97.3125 C-20.54986328 97.30686035 -21.34972656 97.3012207 -22.17382812 97.29541016 C-34.40754765 97.0444748 -44.29888481 92.67357798 -53.25 84.25 C-62.07672451 74.88832249 -66.59859563 64.06618399 -66.5 51.25 C-66.49427979 50.37819092 -66.48855957 49.50638184 -66.48266602 48.6081543 C-66.12884756 35.70986331 -60.98504716 26.18877771 -52.125 17.0703125 C-43.53274639 8.99775165 -32.91922266 5.75456183 -21.79345703 2.66772461 C-19.60281753 2.05630879 -17.42090153 1.41867737 -15.23828125 0.77929688 C-13.83899049 0.38382515 -12.43926509 -0.01011265 -11.0390625 -0.40234375 C-9.78303223 -0.75804443 -8.52700195 -1.11374512 -7.23291016 -1.48022461 C-3.87719819 -2.01974362 -2.72768559 -1.92303969 0 0 Z " fill="#1D1A1A" transform="translate(70,116)"/>
<path d="M0 0 C1.32 0 2.64 0 4 0 C4.45375 0.763125 4.9075 1.52625 5.375 2.3125 C7.47720628 5.78922576 9.25801373 6.47954422 13 8 C16.45057413 8.47059665 16.45057413 8.47059665 20 8.375 C21.175625 8.38273438 22.35125 8.39046875 23.5625 8.3984375 C28.67397325 7.80597128 31.93405429 6.30959044 35.1875 2.3125 C35.785625 1.549375 36.38375 0.78625 37 0 C37.99 0 38.98 0 40 0 C39.58424938 4.85042388 37.58340022 6.84319505 34 10 C33.01 10.66 32.02 11.32 31 12 C31.7425 12.515625 32.485 13.03125 33.25 13.5625 C37.41194812 17.25149947 39.64009308 20.35704714 40.38671875 25.83984375 C40.62599852 32.38290789 39.97791267 37.67036943 36 43 C32.47504812 46.34870429 29.18706198 48.90058809 24.25 49.125 C23.5075 49.08375 22.765 49.0425 22 49 C22 50.98 22 52.96 22 55 C24.31 55 26.62 55 29 55 C29 55.99 29 56.98 29 58 C26.69 58 24.38 58 22 58 C22 60.31 22 62.62 22 65 C20.68 65 19.36 65 18 65 C18 63.02 18 61.04 18 59 C15.69 59 13.38 59 11 59 C11 57.68 11 56.36 11 55 C13.31 55 15.62 55 18 55 C18 53.02 18 51.04 18 49 C17.01 48.979375 16.02 48.95875 15 48.9375 C9.74647059 48.19004663 6.48477465 44.77517254 3 41 C-0.74429788 35.85159042 -0.94400417 30.15350869 0 24 C1.28279363 20.98645306 2.96252268 18.55117557 5 16 C6.1446875 14.515 6.1446875 14.515 7.3125 13 C7.869375 12.34 8.42625 11.68 9 11 C8.071875 10.443125 7.14375 9.88625 6.1875 9.3125 C3.03938433 7.02857295 1.64254497 5.46759494 0 2 C0 1.34 0 0.68 0 0 Z M6.6875 19.625 C3.21217758 24.51619452 3.40194482 29.12743039 4 35 C6.45567552 40.00230198 9.9970307 43.49851535 15 46 C21.42435182 46.81304038 26.74402624 45.88846927 32 42 C35.70112568 37.34986774 37.49529122 33.28313131 37.40625 27.26171875 C36.59573658 22.74934114 34.05492565 19.32527306 31 16 C22.03437767 10.41763138 13.56961294 11.8128718 6.6875 19.625 Z " fill="#1F1C1C" transform="translate(155,133)"/>
<path d="M0 0 C1.32435978 3.97307934 0.18129186 6.80974568 -0.9375 10.6875 C-1.13279297 11.38939453 -1.32808594 12.09128906 -1.52929688 12.81445312 C-2.01199136 14.54508944 -2.50500846 16.27284066 -3 18 C-2.01 18.33 -1.02 18.66 0 19 C0 19.99 0 20.98 0 22 C0.71430176 22.19110352 1.42860352 22.38220703 2.16455078 22.57910156 C9.04252282 24.42076251 15.91693724 26.27516647 22.78955078 28.13671875 C25.45936715 28.85462527 28.13212359 29.55747439 30.80859375 30.25 C32.04738281 30.58 33.28617188 30.91 34.5625 31.25 C35.61566406 31.52328125 36.66882813 31.7965625 37.75390625 32.078125 C38.49511719 32.38234375 39.23632812 32.6865625 40 33 C40.33 33.99 40.66 34.98 41 36 C38.13977563 36.95340812 36.55926666 37.08512468 33.61328125 36.9921875 C32.3284082 36.96705078 32.3284082 36.96705078 31.01757812 36.94140625 C29.23350128 36.89760942 27.44960248 36.84570606 25.66601562 36.78515625 C21.20035005 36.7117846 17.69848609 36.90823953 13.54296875 38.6328125 C11.78919922 39.30957031 11.78919922 39.30957031 10 40 C9.01 39.34 8.02 38.68 7 38 C2.17403931 41.15422267 -2.57557408 44.28919117 -7 48 C-6.49042339 42.98916329 -5.91507725 39.78769313 -4 35 C2.435 34.505 2.435 34.505 9 34 C9 33.67 9 33.34 9 33 C5.04 32.67 1.08 32.34 -3 32 C-2.67 30.02 -2.34 28.04 -2 26 C-2.99 26.33 -3.98 26.66 -5 27 C-5.99 29.475 -5.99 29.475 -7 32 C-10.63 32 -14.26 32 -18 32 C-16.35 29.03 -14.7 26.06 -13 23 C-11.02 23 -9.04 23 -7 23 C-7.515625 22.608125 -8.03125 22.21625 -8.5625 21.8125 C-10 20 -10 20 -9.875 17.875 C-8.66860312 13.91112452 -6.62351346 10.68579106 -4.4375 7.1875 C-3.80038086 6.14819336 -3.80038086 6.14819336 -3.15039062 5.08789062 C-2.10690544 3.38783049 -1.05434704 1.69334524 0 0 Z " fill="#242121" transform="translate(147,89)"/>
<path d="M0 0 C0.66 0 1.32 0 2 0 C2.37697021 0.67877197 2.75394043 1.35754395 3.14233398 2.05688477 C12.54664271 19.06986472 12.54664271 19.06986472 22.50952148 35.75805664 C25 39.79691356 25 39.79691356 25 42 C17.74 42 10.48 42 3 42 C3 45.3 3 48.6 3 52 C5.97 52 8.94 52 12 52 C12 53.32 12 54.64 12 56 C9.03 56 6.06 56 3 56 C3 59.63 3 63.26 3 67 C2.01 67 1.02 67 0 67 C0 63.37 0 59.74 0 56 C-3.63 56 -7.26 56 -11 56 C-11 54.68 -11 53.36 -11 52 C-7.37 52 -3.74 52 0 52 C0 48.7 0 45.4 0 42 C-7.59 42 -15.18 42 -23 42 C-21.37268021 37.93170053 -19.65502087 34.47588226 -17.48046875 30.703125 C-17.14002029 30.11005554 -16.79957184 29.51698608 -16.44880676 28.90594482 C-15.36476137 27.01885178 -14.27631336 25.13434529 -13.1875 23.25 C-11.76322134 20.77667485 -10.34062889 18.30238138 -8.91796875 15.828125 C-8.57700165 15.23592163 -8.23603455 14.64371826 -7.88473511 14.03356934 C-5.20936561 9.38144557 -2.58284744 4.70405296 0 0 Z M0 8 C-2.10392821 11.60875236 -4.20338301 15.22005862 -6.29882812 18.83374023 C-7.01148691 20.06133057 -7.72533846 21.2882293 -8.44042969 22.5144043 C-9.47128731 24.28251176 -10.49775292 26.05310658 -11.5234375 27.82421875 C-12.14138184 28.88729248 -12.75932617 29.95036621 -13.39599609 31.0456543 C-15.220164 34.26856179 -15.220164 34.26856179 -17 39 C-5.12 39 6.76 39 19 39 C16.51083796 32.77709489 13.31658858 27.10012082 10.0625 21.25 C9.42246951 20.07685376 8.78249501 18.90367696 8.14257812 17.73046875 C7.52962891 16.62832031 6.91667969 15.52617187 6.28515625 14.390625 C5.72707275 13.38032227 5.16898926 12.37001953 4.59399414 11.32910156 C3.14858391 8.71380926 3.14858391 8.71380926 0 8 Z " fill="#201E1E" transform="translate(48,132)"/>
<path d="M0 0 C10.95220289 2.95165752 19.42307386 8.67347658 26 18 C32.97489 30.78224406 35.44532992 43.57478995 31.375 57.8125 C26.58842732 71.50041837 18.51116985 80.82058297 5.57421875 87.1953125 C-2.33823687 90.54784925 -9.54506925 90.41076587 -18 90 C-17.67 89.01 -17.34 88.02 -17 87 C-16.03320312 86.90203125 -15.06640625 86.8040625 -14.0703125 86.703125 C-0.19150562 85.10912342 11.06494407 81.58293853 20.25 70.3125 C28.02265297 58.87063376 29.66846707 47.56134657 28 34 C25.52629562 23.53781909 19.0995699 14.22961618 9.9375 8.5625 C6.05701284 6.4453254 2.11521857 4.61030292 -2 3 C-1.34 2.67 -0.68 2.34 0 2 C0 1.34 0 0.68 0 0 Z " fill="#222020" transform="translate(188,123)"/>
<path d="M0 0 C3.05708129 0.04356885 5.66428542 0.34144064 8.6015625 1.171875 C6.93683596 15.9054828 3.20091884 23.83539887 -8.3984375 33.171875 C-11.99075551 31.97443566 -12.77625794 30.38428639 -14.7265625 27.25390625 C-16.21059156 22.65514177 -14.34107433 18.77867477 -12.31640625 14.6484375 C-5.35113288 1.84521823 -5.35113288 1.84521823 0 0 Z " fill="#F6F6F6" transform="translate(130.3984375,122.828125)"/>
<path d="M0 0 C3.96 0 7.92 0 12 0 C14.06725827 3.36154171 16.10336349 6.73618138 18.125 10.125 C18.71410156 11.07632813 19.30320312 12.02765625 19.91015625 13.0078125 C24.12840687 20.15402532 24.12840687 20.15402532 23.46875 24.5 C22.9840625 25.325 22.499375 26.15 22 27 C21.46375 27.94875 20.9275 28.8975 20.375 29.875 C19.92125 30.57625 19.4675 31.2775 19 32 C12.60322921 29.26930303 6.08656687 23.47105227 3.10400391 17.08007812 C1.13201717 11.51562827 0 5.91292344 0 0 Z " fill="#F7F7F7" transform="translate(86,124)"/>
<path d="M0 0 C1.06089844 0.2475 2.12179688 0.495 3.21484375 0.75 C6.15436938 1.46344379 9.07912239 2.21418014 12 3 C11.45632984 7.62119633 10.29719146 10.66959941 7 14 C2.84832872 14.96921913 -1.19053105 14.92799678 -5.4375 14.875 C-7.13616211 14.93494141 -7.13616211 14.93494141 -8.86914062 14.99609375 C-16.92161298 14.98660351 -16.92161298 14.98660351 -19.89892578 12.26269531 C-21.99580889 9.04092563 -23 6.87642598 -23 3 C-8.03879716 -1.95869169 -8.03879716 -1.95869169 0 0 Z " fill="#F7F7F7" transform="translate(118,107)"/>
<path d="M0 0 C2.91479837 3.50807592 5.41239065 7.08400485 7.75 11 C8.36359375 12.010625 8.9771875 13.02125 9.609375 14.0625 C11.01965362 17.0415155 11.30969465 18.7601175 11 22 C11.61359375 22.24492188 12.2271875 22.48984375 12.859375 22.7421875 C15.42635567 24.25052285 16.03857904 25.44256788 17.25 28.125 C17.58515625 28.84945312 17.9203125 29.57390625 18.265625 30.3203125 C18.50796875 30.87460938 18.7503125 31.42890625 19 32 C15.29212965 32.28328381 11.69681924 32.46346554 8 32 C5.8125 29.5 5.8125 29.5 5 27 C3.7763932 29.0745356 3.7763932 29.0745356 4 32 C-3.26 32 -10.52 32 -18 32 C-15.80202597 29.80202597 -14.82453855 29.54102483 -11.875 28.875 C-10.59625 28.58625 -9.3175 28.2975 -8 28 C-8.33 27.01 -8.66 26.02 -9 25 C-5.7 23.68 -2.4 22.36 1 21 C0.76023437 20.08476563 0.52046875 19.16953125 0.2734375 18.2265625 C-0.02304688 17.03804687 -0.31953125 15.84953125 -0.625 14.625 C-0.92664063 13.44164063 -1.22828125 12.25828125 -1.5390625 11.0390625 C-1.69117187 10.03617188 -1.84328125 9.03328125 -2 8 C-1.34 7.34 -0.68 6.68 0 6 C0.16681109 2.91652174 0.16681109 2.91652174 0 0 Z " fill="#262323" transform="translate(77,89)"/>
<path d="M0 0 C2.83218686 1.08289498 5.45121223 2.2436546 8.125 3.6875 C10.97974073 5.38544727 10.97974073 5.38544727 14 4 C17.63547164 2.78817612 20.75023625 3.08930371 24.5 3.375 C25.51513672 3.44074219 25.51513672 3.44074219 26.55078125 3.5078125 C29.56157239 3.72159649 32.12334604 4.04111535 35 5 C35 5.66 35 6.32 35 7 C37.06266324 6.20875876 39.12512379 5.41698909 41.1875 4.625 C42.33605469 4.18414062 43.48460937 3.74328125 44.66796875 3.2890625 C47.45335994 2.21147857 50.22997721 1.1163557 53 0 C52.18993474 1.64703306 51.3768779 3.29259506 50.5625 4.9375 C50.11003906 5.85402344 49.65757812 6.77054687 49.19140625 7.71484375 C48 10 48 10 47 11 C46.05125 10.979375 45.1025 10.95875 44.125 10.9375 C40.83264113 10.72305197 40.83264113 10.72305197 38 13 C36.08984375 12.72265625 36.08984375 12.72265625 33.9375 12.0625 C26.0805341 10.08550371 18.65970989 11.87230281 11 14 C10.67 13.01 10.34 12.02 10 11 C9.278125 11 8.55625 11 7.8125 11 C3.51469403 9.47189121 1.92330674 6.00211489 0 2 C0 1.34 0 0.68 0 0 Z " fill="#272424" transform="translate(86,96)"/>
<path d="M0 0 C0.99 0.33 1.98 0.66 3 1 C2.67460977 9.94823141 -1.35938545 15.77238478 -7.8125 21.8125 C-16.89882983 29.14293495 -25.63474784 30.11020087 -37 29 C-46.23885664 26.94826968 -53.75143637 20.77564982 -59 13 C-62.07541241 6.95522388 -62.07541241 6.95522388 -61.8125 3.625 C-61 2 -61 2 -59 1 C-58.72027344 1.78503906 -58.44054687 2.57007812 -58.15234375 3.37890625 C-54.54290927 12.83771364 -50.8231948 18.28457959 -41.75 22.9375 C-33.04103244 26.53054399 -25.20992168 25.85199361 -16.57421875 22.31640625 C-8.51821973 18.19672238 -4.25262062 12.33396785 -1 4 C-0.63761796 2.67426694 -0.29323798 1.34272126 0 0 Z " fill="#1E1B1B" transform="translate(142,62)"/>
<path d="M0 0 C0.33 0 0.66 0 1 0 C1 3.96 1 7.92 1 12 C-0.32 11.67 -1.64 11.34 -3 11 C-3 10.34 -3 9.68 -3 9 C-22.47 9 -41.94 9 -62 9 C-62.33 10.65 -62.66 12.3 -63 14 C-63.99 14.33 -64.98 14.66 -66 15 C-65.67 10.71 -65.34 6.42 -65 2 C-64.01 2 -63.02 2 -62 2 C-62 2.99 -62 3.98 -62 5 C-42.53 5 -23.06 5 -3 5 C-3 4.34 -3 3.68 -3 3 C-2.01 3 -1.02 3 0 3 C0 2.01 0 1.02 0 0 Z " fill="#2A2828" transform="translate(145,51)"/>
<path d="M0 0 C12.69215511 2.25183397 22.95491894 7.97016057 30.8203125 18.41796875 C32.38430454 20.88970491 33.72572639 23.36782858 35 26 C35.4125 26.84175781 35.825 27.68351562 36.25 28.55078125 C40.95806514 39.58530892 39.66259414 51.56510909 37 63 C35.68 62.01 34.36 61.02 33 60 C33.15936035 59.42958984 33.3187207 58.85917969 33.48291016 58.27148438 C36.40178691 45.44937421 34.31499003 32.55254741 27.4609375 21.5234375 C21.09092689 12.49674001 12.8665213 7.77898243 2.37109375 4.82421875 C0 4 0 4 -1 2 C-0.67 1.34 -0.34 0.68 0 0 Z " fill="#1D1A1A" transform="translate(119,12)"/>
<path d="M0 0 C0.99 0.33 1.98 0.66 3 1 C2.67 2.98 2.34 4.96 2 7 C9.26 7 16.52 7 24 7 C24 7.33 24 7.66 24 8 C19.545 8.495 19.545 8.495 15 9 C15 9.33 15 9.66 15 10 C10.38 10.33 5.76 10.66 1 11 C0.34 13.31 -0.32 15.62 -1 18 C-1.99 17.67 -2.98 17.34 -4 17 C-3.67 14.69 -3.34 12.38 -3 10 C-4.95901454 10.11382653 -6.9172338 10.24141125 -8.875 10.375 C-10.51082031 10.47941406 -10.51082031 10.47941406 -12.1796875 10.5859375 C-15.13046474 10.73253491 -15.13046474 10.73253491 -17 13 C-17.99 12.67 -18.98 12.34 -20 12 C-20 11.34 -20 10.68 -20 10 C-20.55985596 10.01571045 -21.11971191 10.0314209 -21.6965332 10.04760742 C-24.2350859 10.10999848 -26.77347729 10.14900218 -29.3125 10.1875 C-30.19357422 10.21263672 -31.07464844 10.23777344 -31.98242188 10.26367188 C-33.25375977 10.27817383 -33.25375977 10.27817383 -34.55078125 10.29296875 C-35.33106689 10.3086792 -36.11135254 10.32438965 -36.9152832 10.34057617 C-39.49903853 9.91847304 -40.36292167 8.98510058 -42 7 C-40.89543457 6.98598145 -40.89543457 6.98598145 -39.76855469 6.97167969 C-36.42835782 6.91795845 -33.08955881 6.83431378 -29.75 6.75 C-28.59113281 6.73582031 -27.43226562 6.72164063 -26.23828125 6.70703125 C-24.56572266 6.65869141 -24.56572266 6.65869141 -22.859375 6.609375 C-21.83295898 6.58842773 -20.80654297 6.56748047 -19.74902344 6.54589844 C-16.36230513 5.87336717 -15.26170831 4.52291615 -13 2 C-12.34 2 -11.68 2 -11 2 C-11.33 3.32 -11.66 4.64 -12 6 C-8.7 6.33 -5.4 6.66 -2 7 C-1.855625 6.21625 -1.71125 5.4325 -1.5625 4.625 C-1 2 -1 2 0 0 Z " fill="#171414" transform="translate(142,114)"/>
<path d="M0 0 C0 0.66 0 1.32 0 2 C-3.63 2.66 -7.26 3.32 -11 4 C-11 4.66 -11 5.32 -11 6 C-4.07 6 2.86 6 10 6 C10 6.33 10 6.66 10 7 C6.04 7 2.08 7 -2 7 C-1.34 8.32 -0.68 9.64 0 11 C-0.33 11.99 -0.66 12.98 -1 14 C-1.53625 13.72285156 -2.0725 13.44570312 -2.625 13.16015625 C-8.99164374 10.21767781 -14.6380032 9.48080608 -21.55273438 9.32836914 C-25.23885909 9.22742244 -26.84625609 9.10249594 -30 7 C-30 6.34 -30 5.68 -30 5 C-25.75641453 3.76830779 -21.50440156 2.56874559 -17.25 1.375 C-16.0434375 1.024375 -14.836875 0.67375 -13.59375 0.3125 C-12.43359375 -0.00976562 -11.2734375 -0.33203125 -10.078125 -0.6640625 C-9.00981445 -0.96779785 -7.94150391 -1.2715332 -6.84082031 -1.58447266 C-3.72470091 -2.04026805 -2.57539203 -1.72236133 0 0 Z " fill="#222020" transform="translate(70,116)"/>
<path d="M0 0 C6.6 0 13.2 0 20 0 C18.93814418 4.24742326 17.13011675 7.52368759 14.9375 11.25 C14.56044922 11.8996875 14.18339844 12.549375 13.79492188 13.21875 C12.86765885 14.81505091 11.93441544 16.40787529 11 18 C7.91434503 15.28423427 5.92712681 11.91344172 3.8125 8.4375 C3.44447266 7.84775391 3.07644531 7.25800781 2.69726562 6.65039062 C0 2.25169585 0 2.25169585 0 0 Z " fill="#EEEEEE" transform="translate(102,124)"/>
<path d="M0 0 C0.66 0 1.32 0 2 0 C-0.23193077 8.92772307 -6.69609853 15.70918798 -14 21 C-21.74100156 25.52956438 -28.81403637 28.35328009 -37.875 28.125 C-38.56335938 28.11597656 -39.25171875 28.10695312 -39.9609375 28.09765625 C-41.64077838 28.07432513 -43.32043746 28.03846326 -45 28 C-44.505 26.515 -44.505 26.515 -44 25 C-43.03320312 24.90203125 -42.06640625 24.8040625 -41.0703125 24.703125 C-27.89908819 23.19039033 -16.82251778 20.17660528 -7.953125 9.546875 C-6.74487891 7.95917972 -5.56104782 6.35240577 -4.41015625 4.72265625 C-3.94480469 4.15417969 -3.47945312 3.58570313 -3 3 C-2.34 3 -1.68 3 -1 3 C-0.67 2.01 -0.34 1.02 0 0 Z " fill="#1F1C1C" transform="translate(215,185)"/>
<path d="M0 0 C0.33 0 0.66 0 1 0 C1 2.97 1 5.94 1 9 C4.3 9 7.6 9 11 9 C11 10.32 11 11.64 11 13 C8.03 13 5.06 13 2 13 C2 16.63 2 20.26 2 24 C1.01 24 0.02 24 -1 24 C-1 20.37 -1 16.74 -1 13 C-4.63 13 -8.26 13 -12 13 C-12 11.68 -12 10.36 -12 9 C-8.04 9 -4.08 9 0 9 C0 6.03 0 3.06 0 0 Z " fill="#222020" transform="translate(49,175)"/>
<path d="M0 0 C0.66 0 1.32 0 2 0 C1.67 1.32 1.34 2.64 1 4 C4.3 4.33 7.6 4.66 11 5 C10.67 5.99 10.34 6.98 10 8 C9.15695313 8.04898438 8.31390625 8.09796875 7.4453125 8.1484375 C6.34960938 8.22320312 5.25390625 8.29796875 4.125 8.375 C2.48917969 8.47941406 2.48917969 8.47941406 0.8203125 8.5859375 C-2.13046474 8.73253491 -2.13046474 8.73253491 -4 11 C-4.99 10.67 -5.98 10.34 -7 10 C-7 9.34 -7 8.68 -7 8 C-7.55985596 8.01571045 -8.11971191 8.0314209 -8.6965332 8.04760742 C-11.2350859 8.10999848 -13.77347729 8.14900218 -16.3125 8.1875 C-17.19357422 8.21263672 -18.07464844 8.23777344 -18.98242188 8.26367188 C-20.25375977 8.27817383 -20.25375977 8.27817383 -21.55078125 8.29296875 C-22.33106689 8.3086792 -23.11135254 8.32438965 -23.9152832 8.34057617 C-26.49903853 7.91847304 -27.36292167 6.98510058 -29 5 C-27.89543457 4.98598145 -27.89543457 4.98598145 -26.76855469 4.97167969 C-23.42835782 4.91795845 -20.08955881 4.83431378 -16.75 4.75 C-15.59113281 4.73582031 -14.43226562 4.72164063 -13.23828125 4.70703125 C-11.56572266 4.65869141 -11.56572266 4.65869141 -9.859375 4.609375 C-8.83295898 4.58842773 -7.80654297 4.56748047 -6.74902344 4.54589844 C-3.36230513 3.87336717 -2.26170831 2.52291615 0 0 Z " fill="#100D0D" transform="translate(129,116)"/>
<path d="M0 0 C2 1 2 1 2.61328125 2.62109375 C4.1374201 11.99685696 3.13853083 21.81577385 1 31 C-0.32 30.01 -1.64 29.02 -3 28 C-2.83701416 27.45182617 -2.67402832 26.90365234 -2.50610352 26.33886719 C-1.93196444 23.68558577 -1.88726348 21.29257322 -1.90234375 18.578125 C-1.90556641 17.55332031 -1.90878906 16.52851562 -1.91210938 15.47265625 C-1.92048828 14.40917969 -1.92886719 13.34570312 -1.9375 12.25 C-1.94426758 10.63158203 -1.94426758 10.63158203 -1.95117188 8.98046875 C-1.96294273 6.32025617 -1.97938601 3.66015635 -2 1 C-1.34 0.67 -0.68 0.34 0 0 Z " fill="#242121" transform="translate(155,44)"/>
<path d="M0 0 C2 3 2 3 3 6 C3.68707031 6.03738281 4.37414062 6.07476562 5.08203125 6.11328125 C5.98308594 6.17902344 6.88414063 6.24476562 7.8125 6.3125 C9.15248047 6.39951172 9.15248047 6.39951172 10.51953125 6.48828125 C13.30604 7.06313581 14.24135754 7.8206856 16 10 C14.73542969 10.03867188 14.73542969 10.03867188 13.4453125 10.078125 C12.34960938 10.13484375 11.25390625 10.1915625 10.125 10.25 C9.03445312 10.29640625 7.94390625 10.3428125 6.8203125 10.390625 C3.8667935 10.68846128 3.8667935 10.68846128 2.6171875 13.046875 C2.41351563 13.69140625 2.20984375 14.3359375 2 15 C0 12 0 12 0 10 C-4.62 10 -9.24 10 -14 10 C-14 9.67 -14 9.34 -14 9 C-16.97 8.67 -19.94 8.34 -23 8 C-23 7.67 -23 7.34 -23 7 C-15.74 7 -8.48 7 -1 7 C-1.33 5.02 -1.66 3.04 -2 1 C-1.34 0.67 -0.68 0.34 0 0 Z " fill="#0F0C0C" transform="translate(82,114)"/>
<path d="M0 0 C11.88 0 23.76 0 36 0 C36 0.33 36 0.66 36 1 C37.98 1.33 39.96 1.66 42 2 C42 2.33 42 2.66 42 3 C34.74 3 27.48 3 20 3 C20 6.3 20 9.6 20 13 C19.01 13 18.02 13 17 13 C17 9.04 17 5.08 17 1 C11.39 1 5.78 1 0 1 C0 0.67 0 0.34 0 0 Z " fill="#0B0808" transform="translate(31,171)"/>
<path d="M0 0 C0.99 0.33 1.98 0.66 3 1 C3.33 1.99 3.66 2.98 4 4 C6.31 4.33 8.62 4.66 11 5 C11 5.99 11 6.98 11 8 C8.69 8 6.38 8 4 8 C4 10.31 4 12.62 4 15 C2.68 15 1.36 15 0 15 C0 13.02 0 11.04 0 9 C-2.31 9 -4.62 9 -7 9 C-7 7.68 -7 6.36 -7 5 C-4.69 5 -2.38 5 0 5 C0 3.35 0 1.7 0 0 Z " fill="#242222" transform="translate(173,183)"/>
<path d="M0 0 C0.33 0 0.66 0 1 0 C1.66898955 18.36004646 1.66898955 18.36004646 -2 26 C-2.99 26.33 -3.98 26.66 -5 27 C-5.33 27.66 -5.66 28.32 -6 29 C-6.66 28.67 -7.32 28.34 -8 28 C-7.72285156 27.46375 -7.44570312 26.9275 -7.16015625 26.375 C-3.4596186 18.36814274 -3.2151361 10.66998469 -3 2 C-2.01 2 -1.02 2 0 2 C0 1.34 0 0.68 0 0 Z " fill="#333030" transform="translate(220,159)"/>
<path d="M0 0 C-1.34268655 4.33791038 -2.93212679 7.86425357 -5 12 C0.61 12 6.22 12 12 12 C12 12.66 12 13.32 12 14 C4.41 14 -3.18 14 -11 14 C-9.61241704 10.5310426 -8.43263379 7.83750032 -6.5 4.75 C-6.0771875 4.06421875 -5.654375 3.3784375 -5.21875 2.671875 C-3.63953675 0.50551836 -2.68205395 0 0 0 Z " fill="#191616" transform="translate(36,160)"/>
<path d="M0 0 C4.62 0 9.24 0 14 0 C11.54052197 2.45947803 9.50238324 4.08635071 6.625 5.9375 C3.26539246 8.13522043 0.08015371 10.41664527 -3 13 C-2.49042339 7.98916329 -1.91507725 4.78769313 0 0 Z " fill="#E4E4E4" transform="translate(143,124)"/>
<path d="M0 0 C4.62 0 9.24 0 14 0 C14.99 4.29 15.98 8.58 17 13 C15.2984375 11.700625 15.2984375 11.700625 13.5625 10.375 C9.71089963 7.47424194 5.74118962 4.8080967 1.6875 2.19921875 C1.130625 1.80347656 0.57375 1.40773438 0 1 C0 0.67 0 0.34 0 0 Z " fill="#E8E8E8" transform="translate(68,124)"/>
<path d="M0 0 C7 6 7 6 9 10 C7.8828125 12.796875 7.8828125 12.796875 6.125 15.75 C5.26261719 17.22726563 5.26261719 17.22726563 4.3828125 18.734375 C3.92648438 19.48203125 3.47015625 20.2296875 3 21 C2.67 21 2.34 21 2 21 C1.34 14.07 0.68 7.14 0 0 Z " fill="#F4F3F3" transform="translate(93,151)"/>
<path d="M0 0 C2.6244603 2.3745117 4.50692877 4.77810946 6 8 C5.5 10.1875 5.5 10.1875 4 12 C1.375 13.25 1.375 13.25 -1 14 C-2.32 12.68 -3.64 11.36 -5 10 C-3.66511872 6.40608886 -2.03977277 3.24509304 0 0 Z " fill="#EEEEEE" transform="translate(112,150)"/>
<path d="M0 0 C0.99443769 2.98331306 1.02452065 4.20838759 0.66015625 7.23046875 C0.56669922 8.03291016 0.47324219 8.83535156 0.37695312 9.66210938 C0.22129883 10.91217773 0.22129883 10.91217773 0.0625 12.1875 C-0.03740234 13.03248047 -0.13730469 13.87746094 -0.24023438 14.74804688 C-0.48757108 16.83274197 -0.74301041 18.91647284 -1 21 C-8.12345835 12.16573177 -8.12345835 12.16573177 -7.796875 9.08203125 C-6.80281127 6.48479612 -5.45098978 5.15366307 -3.4375 3.25 C-2.79683594 2.63640625 -2.15617188 2.0228125 -1.49609375 1.390625 C-1.00238281 0.93171875 -0.50867188 0.4728125 0 0 Z " fill="#F4F4F4" transform="translate(131,151)"/>
<path d="M0 0 C1.68284214 2.58144716 2.77726602 5.14695405 4 8 C0.37 8 -3.26 8 -7 8 C-9 4 -9 4 -9 0 C-5.6457497 -1.11808343 -3.29333623 -1.3996679 0 0 Z " fill="#EBEAEA" transform="translate(92,113)"/>
<path d="M0 0 C0.66 0.33 1.32 0.66 2 1 C-0.97 5.95 -0.97 5.95 -4 11 C-8.71403788 10.52060632 -12.66579301 10.03165952 -17 8 C-12.65396765 5.73753764 -8.11554524 3.968487 -3.58203125 2.12109375 C-1.11553845 1.23786771 -1.11553845 1.23786771 0 0 Z " fill="#EAEAEA" transform="translate(137,96)"/>
<path d="M0 0 C1.09178911 3.27536732 0.93042848 4.04413619 0.00390625 7.23046875 C-0.22490234 8.03291016 -0.45371094 8.83535156 -0.68945312 9.66210938 C-0.93630859 10.49548828 -1.18316406 11.32886719 -1.4375 12.1875 C-1.68048828 13.03248047 -1.92347656 13.87746094 -2.17382812 14.74804688 C-2.77493493 16.8342411 -3.38647834 18.91742301 -4 21 C-5.98 20.67 -7.96 20.34 -10 20 C-9.46323088 14.9738891 -7.05581499 11.37760591 -4.4375 7.1875 C-4.01275391 6.49462891 -3.58800781 5.80175781 -3.15039062 5.08789062 C-2.10690544 3.38783049 -1.05434704 1.69334524 0 0 Z " fill="#F3F3F3" transform="translate(147,89)"/>
<path d="M0 0 C0.33 1.98 0.66 3.96 1 6 C-6.26 6 -13.52 6 -21 6 C-18.28441527 3.28441527 -15.23958865 2.7991846 -11.625 1.875 C-10.61566406 1.60236328 -10.61566406 1.60236328 -9.5859375 1.32421875 C-6.24160138 0.44863469 -3.4843149 0 0 0 Z " fill="#E6E6E6" transform="translate(80,115)"/>
<path d="M0 0 C0.66 0.33 1.32 0.66 2 1 C2 1.99 2 2.98 2 4 C-11.51908397 11 -11.51908397 11 -18 11 C-18.33 9.68 -18.66 8.36 -19 7 C-17.72125 6.773125 -16.4425 6.54625 -15.125 6.3125 C-10.31082325 5.27489614 -6.352688 3.30704889 -2.06640625 0.92578125 C-1.38449219 0.62027344 -0.70257813 0.31476563 0 0 Z " fill="#1D1A1A" transform="translate(73,202)"/>
<path d="M0 0 C7.11120489 1.31117661 14.04699943 3.01720516 21 5 C21 5.33 21 5.66 21 6 C13.74 6 6.48 6 -1 6 C-0.67 4.02 -0.34 2.04 0 0 Z " fill="#E9E9E9" transform="translate(145,115)"/>
<path d="M0 0 C2.31 0.33 4.62 0.66 7 1 C6.67 3.64 6.34 6.28 6 9 C2.37 9 -1.26 9 -5 9 C-3.35 6.03 -1.7 3.06 0 0 Z " fill="#F3F3F3" transform="translate(134,112)"/>
<path d="M0 0 C1.32 0.66 2.64 1.32 4 2 C4 6 4 6 2.80664062 7.64746094 C2.26201172 8.17114258 1.71738281 8.69482422 1.15625 9.234375 C0.27646484 10.09482422 0.27646484 10.09482422 -0.62109375 10.97265625 C-1.24113281 11.55917969 -1.86117187 12.14570313 -2.5 12.75 C-3.12003906 13.35199219 -3.74007812 13.95398438 -4.37890625 14.57421875 C-5.91044821 16.05863634 -7.45409774 17.53054345 -9 19 C-9 15.80971469 -8.57516922 14.88744656 -7.03125 12.20703125 C-6.62519531 11.49482422 -6.21914062 10.78261719 -5.80078125 10.04882812 C-5.37152344 9.31083984 -4.94226563 8.57285156 -4.5 7.8125 C-4.07074219 7.06291016 -3.64148438 6.31332031 -3.19921875 5.54101562 C-2.13853779 3.69071661 -1.07001077 1.84491937 0 0 Z " fill="#F5F5F5" transform="translate(104,163)"/>
<path d="M0 0 C6.1246542 2.37083388 12.14445914 5.02575702 18 8 C16.5882217 8.53394179 15.17029756 9.05165104 13.75 9.5625 C12.96109375 9.85253906 12.1721875 10.14257812 11.359375 10.44140625 C8.71274471 11.06800912 7.47860894 11.10504648 5 10 C3.515625 8.22265625 3.515625 8.22265625 2.25 6.0625 C1.82203125 5.35222656 1.3940625 4.64195313 0.953125 3.91015625 C0 2 0 2 0 0 Z " fill="#EFEFEF" transform="translate(86,96)"/>
<path d="M0 0 C3.32366742 3.05099404 5.54224226 6.23449516 7.8125 10.125 C8.43769531 11.17945313 9.06289062 12.23390625 9.70703125 13.3203125 C10.13371094 14.20460937 10.56039062 15.08890625 11 16 C10.67 16.66 10.34 17.32 10 18 C9.32453125 17.31292969 8.6490625 16.62585938 7.953125 15.91796875 C7.06109375 15.01691406 6.1690625 14.11585938 5.25 13.1875 C3.92742187 11.84751953 3.92742187 11.84751953 2.578125 10.48046875 C0.13545957 8.01846688 0.13545957 8.01846688 -2.328125 6.30078125 C-2.87984375 5.87152344 -3.4315625 5.44226563 -4 5 C-4 4.34 -4 3.68 -4 3 C-2 1.375 -2 1.375 0 0 Z " fill="#F1F1F1" transform="translate(119,163)"/>
<path d="M0 0 C2.95097333 3.53855651 5.41966375 7.15147793 7.75 11.125 C8.36359375 12.15882812 8.9771875 13.19265625 9.609375 14.2578125 C11 17 11 17 11 20 C9.02 20.33 7.04 20.66 5 21 C4.16193384 18.06377536 3.32937556 15.12617933 2.5 12.1875 C2.26152344 11.35412109 2.02304688 10.52074219 1.77734375 9.66210938 C1.43896484 8.45844727 1.43896484 8.45844727 1.09375 7.23046875 C0.88427734 6.49207764 0.67480469 5.75368652 0.45898438 4.99291992 C0 3 0 3 0 0 Z " fill="#F2F2F2" transform="translate(77,89)"/>
<path d="M0 0 C0.66 0.66 1.32 1.32 2 2 C1.72265625 4.23046875 1.72265625 4.23046875 1 7 C0.75121094 8.02738281 0.50242187 9.05476563 0.24609375 10.11328125 C-0.02074219 11.16902344 -0.28757812 12.22476563 -0.5625 13.3125 C-0.83191406 14.38113281 -1.10132812 15.44976562 -1.37890625 16.55078125 C-1.68634766 17.76314453 -1.68634766 17.76314453 -2 19 C-2.33 18.34 -2.66 17.68 -3 17 C-3.99 17 -4.98 17 -6 17 C-5.00481422 10.49200879 -3.60861828 5.5332147 0 0 Z " fill="#272525" transform="translate(73,34)"/>
<path d="M0 0 C0.33 1.32 0.66 2.64 1 4 C-4.41052058 8.40857233 -8.35583248 9.27515584 -15.3125 8.625 C-16.56675781 8.51414062 -17.82101563 8.40328125 -19.11328125 8.2890625 C-20.06589844 8.19367188 -21.01851563 8.09828125 -22 8 C-22 7.67 -22 7.34 -22 7 C-18.7 7 -15.4 7 -12 7 C-12 6.34 -12 5.68 -12 5 C-10.82630859 4.58427734 -10.82630859 4.58427734 -9.62890625 4.16015625 C-8.61699219 3.79792969 -7.60507813 3.43570313 -6.5625 3.0625 C-5.04849609 2.52302734 -5.04849609 2.52302734 -3.50390625 1.97265625 C-1.09686255 1.23122361 -1.09686255 1.23122361 0 0 Z " fill="#1F1C1C" transform="translate(129,82)"/>
<path d="M0 0 C0.99 0 1.98 0 3 0 C3.24803781 2.79117245 3.47414334 5.58115074 3.6875 8.375 C3.79674805 9.56609375 3.79674805 9.56609375 3.90820312 10.78125 C4.07421875 13.0859375 4.07421875 13.0859375 4 17 C3.01 17.66 2.02 18.32 1 19 C-0.25433458 15.23699626 -0.10695422 11.72789091 -0.0625 7.8125 C-0.05798828 7.06291016 -0.05347656 6.31332031 -0.04882812 5.54101562 C-0.03706354 3.69397617 -0.01912865 1.84697787 0 0 Z " fill="#161313" transform="translate(67,51)"/>
<path d="M0 0 C1.32 0.66 2.64 1.32 4 2 C4 2.99 4 3.98 4 5 C5.65 5.33 7.3 5.66 9 6 C8.34 7.32 7.68 8.64 7 10 C5.88625 9.814375 4.7725 9.62875 3.625 9.4375 C0.17431139 8.68319343 0.17431139 8.68319343 -2 10 C-2.33 8.35 -2.66 6.7 -3 5 C-2.34 4.67 -1.68 4.34 -1 4 C-0.34786708 1.97536745 -0.34786708 1.97536745 0 0 Z " fill="#2B2929" transform="translate(143,106)"/>
<path d="M0 0 C0.33 0 0.66 0 1 0 C1.33 2.97 1.66 5.94 2 9 C2.66 9 3.32 9 4 9 C3.34 13.29 2.68 17.58 2 22 C0.68 21.01 -0.64 20.02 -2 19 C-1.84660156 18.49984375 -1.69320312 17.9996875 -1.53515625 17.484375 C-0.80542604 14.09672234 -0.63643523 10.70038481 -0.4375 7.25 C-0.39431641 6.55261719 -0.35113281 5.85523438 -0.30664062 5.13671875 C-0.20110404 3.42468078 -0.1001009 1.71236439 0 0 Z " fill="#363333" transform="translate(154,53)"/>
<path d="M0 0 C3.96 0.33 7.92 0.66 12 1 C12.33 1.99 12.66 2.98 13 4 C11.68 4 10.36 4 9 4 C9 5.65 9 7.3 9 9 C8.01 9.33 7.02 9.66 6 10 C5.67 8.35 5.34 6.7 5 5 C3.68 4.67 2.36 4.34 1 4 C0.67 2.68 0.34 1.36 0 0 Z " fill="#141111" transform="translate(168,178)"/>
<path d="M0 0 C0.66 0 1.32 0 2 0 C3.32 2.64 4.64 5.28 6 8 C4.02 8 2.04 8 0 8 C-0.33 8.66 -0.66 9.32 -1 10 C-2.32 9.67 -3.64 9.34 -5 9 C-3.35 6.03 -1.7 3.06 0 0 Z " fill="#2A2727" transform="translate(48,132)"/>
<path d="M0 0 C0.66 0 1.32 0 2 0 C1.54857225 1.77260631 1.08859477 3.5430368 0.625 5.3125 C0.36976562 6.29863281 0.11453125 7.28476562 -0.1484375 8.30078125 C-1 11 -1 11 -3 14 C-3.39387788 16.32387947 -3.73486085 18.65793749 -4 21 C-4.33 21 -4.66 21 -5 21 C-5.3690205 8.33029613 -5.3690205 8.33029613 -3 3 C-2.34 3 -1.68 3 -1 3 C-0.67 2.01 -0.34 1.02 0 0 Z " fill="#141111" transform="translate(84,42)"/>
<path d="M0 0 C2.24497221 2.24497221 2.37003419 2.96027349 2.75 6 C2.84796875 6.70125 2.9459375 7.4025 3.046875 8.125 C3 10 3 10 1 12 C0.59952556 14.32275177 0.2602896 16.65739357 0 19 C-0.33 19 -0.66 19 -1 19 C-1.33 13.06 -1.66 7.12 -2 1 C-1.34 0.67 -0.68 0.34 0 0 Z " fill="#2C2929" transform="translate(92,153)"/>
<path d="M0 0 C5.41390868 0.46671627 9.20517932 1.24297811 14 4 C12.359375 5.61328125 12.359375 5.61328125 10 7 C7.203125 6.41796875 7.203125 6.41796875 4.25 5.1875 C3.26515625 4.78917969 2.2803125 4.39085937 1.265625 3.98046875 C0.51796875 3.65691406 -0.2296875 3.33335938 -1 3 C-0.67 2.01 -0.34 1.02 0 0 Z " fill="#282626" transform="translate(117,25)"/>
<path d="M0 0 C4.29 0.33 8.58 0.66 13 1 C13 1.99 13 2.98 13 4 C8.38 4 3.76 4 -1 4 C-0.67 2.68 -0.34 1.36 0 0 Z " fill="#121010" transform="translate(42,209)"/>
<path d="M0 0 C2.7058597 0.67646492 4.51516936 1.35717343 6.22265625 3.62109375 C9 8.40927419 9 8.40927419 9 11 C6.2941403 10.32353508 4.48483064 9.64282657 2.77734375 7.37890625 C0 2.59072581 0 2.59072581 0 0 Z " fill="#1C1919" transform="translate(50,139)"/>
<path d="M0 0 C3.63 0 7.26 0 11 0 C11 0.66 11 1.32 11 2 C11.99 2.33 12.98 2.66 14 3 C10.32589215 4.17571451 6.83070817 4.07366746 3 4 C2.67 3.01 2.34 2.02 2 1 C1.34 0.67 0.68 0.34 0 0 Z " fill="#322F2F" transform="translate(106,24)"/>
<path d="M0 0 C1.98 0.99 1.98 0.99 4 2 C4 4.31 4 6.62 4 9 C2.02 9.99 2.02 9.99 0 11 C0 7.37 0 3.74 0 0 Z " fill="#312F2F" transform="translate(155,157)"/>
<path d="M0 0 C4.29 0 8.58 0 13 0 C12.67 0.99 12.34 1.98 12 3 C8.37 3 4.74 3 1 3 C0.67 2.01 0.34 1.02 0 0 Z " fill="#0D0A0A" transform="translate(106,12)"/>
<path d="M0 0 C2.08379509 3.84700632 3.49686624 7.90054429 5 12 C4.34 12 3.68 12 3 12 C2.67 10.68 2.34 9.36 2 8 C1.34 8 0.68 8 0 8 C-0.33 8.66 -0.66 9.32 -1 10 C-1.66 7.69 -2.32 5.38 -3 3 C-2.01 2.01 -1.02 1.02 0 0 Z " fill="#2D2B2B" transform="translate(71,67)"/>
<path d="M0 0 C0.33 0.99 0.66 1.98 1 3 C0.34 3 -0.32 3 -1 3 C-1 3.66 -1 4.32 -1 5 C-3.31 5.33 -5.62 5.66 -8 6 C-8.33 4.68 -8.66 3.36 -9 2 C-6.03 1.34 -3.06 0.68 0 0 Z " fill="#262323" transform="translate(63,207)"/>
<path d="M0 0 C0.99 0 1.98 0 3 0 C3.08121924 1.60332791 3.13929134 3.20784026 3.1875 4.8125 C3.22230469 5.70582031 3.25710937 6.59914063 3.29296875 7.51953125 C2.95081002 10.41647515 2.24606427 11.22555028 0 13 C-1.06671952 9.79984144 -0.94845472 8.11455706 -0.5625 4.8125 C-0.46066406 3.91144531 -0.35882813 3.01039062 -0.25390625 2.08203125 C-0.17011719 1.39496094 -0.08632812 0.70789062 0 0 Z " fill="#393636" transform="translate(80,53)"/>
<path d="M0 0 C0.75 1.625 0.75 1.625 1 4 C-0.9375 7.25 -0.9375 7.25 -3 10 C-3.99 9.67 -4.98 9.34 -6 9 C-4.68775452 5.06326356 -3.08089673 2.77280706 0 0 Z " fill="#1B1818" transform="translate(102,163)"/>
<path d="M0 0 C3.0390625 0.0234375 3.0390625 0.0234375 6.625 0.375 C7.81351563 0.48585938 9.00203125 0.59671875 10.2265625 0.7109375 C11.14179687 0.80632812 12.05703125 0.90171875 13 1 C13.33 1.99 13.66 2.98 14 4 C11.89611431 4.05402274 9.79183286 4.09280256 7.6875 4.125 C5.92986328 4.15980469 5.92986328 4.15980469 4.13671875 4.1953125 C1 4 1 4 -2 2 C-1.34 1.34 -0.68 0.68 0 0 Z " fill="#0A0707" transform="translate(104,87)"/>
<path d="M0 0 C2.97 0 5.94 0 9 0 C9.33 0.99 9.66 1.98 10 3 C6.37 3 2.74 3 -1 3 C-0.67 2.01 -0.34 1.02 0 0 Z " fill="#0D0B0B" transform="translate(171,210)"/>
<path d="M0 0 C0.99 0 1.98 0 3 0 C3 3.3 3 6.6 3 10 C2.01 10.33 1.02 10.66 0 11 C0 7.37 0 3.74 0 0 Z " fill="#100D0D" transform="translate(218,162)"/>
<path d="M0 0 C1.32 0.33 2.64 0.66 4 1 C2.8125 3.9375 2.8125 3.9375 1 7 C-1.6875 7.875 -1.6875 7.875 -4 8 C-2.68 5.36 -1.36 2.72 0 0 Z " fill="#222020" transform="translate(11,141)"/>
<path d="M0 0 C2.475 0.99 2.475 0.99 5 2 C5 4.31 5 6.62 5 9 C4.01 9 3.02 9 2 9 C1.34 6.03 0.68 3.06 0 0 Z " fill="#1C1919" transform="translate(140,45)"/>
<path d="M0 0 C2.97 0.99 5.94 1.98 9 3 C8.67 3.66 8.34 4.32 8 5 C0.25 4.25 0.25 4.25 -2 2 C-1.34 2 -0.68 2 0 2 C0 1.34 0 0.68 0 0 Z " fill="#1B1919" transform="translate(188,123)"/>
<path d="M0 0 C-0.33 1.32 -0.66 2.64 -1 4 C1.97 4 4.94 4 8 4 C8 4.33 8 4.66 8 5 C6.22950311 5.05410687 4.45853151 5.09284119 2.6875 5.125 C1.20830078 5.15980469 1.20830078 5.15980469 -0.30078125 5.1953125 C-3 5 -3 5 -6 3 C-6 2.34 -6 1.68 -6 1 C-3.92446352 0.4465236 -2.15634036 0 0 0 Z " fill="#4A4848" transform="translate(46,120)"/>
<path d="M0 0 C0.66 0.66 1.32 1.32 2 2 C0.02 4.64 -1.96 7.28 -4 10 C-5.0536628 6.83901159 -5.21514551 5.99112741 -4 3 C-1.9375 1.25 -1.9375 1.25 0 0 Z " fill="#171414" transform="translate(79,28)"/>
<path d="M0 0 C0 2.64 0 5.28 0 8 C-0.99 8.33 -1.98 8.66 -3 9 C-3 6.36 -3 3.72 -3 1 C-1 0 -1 0 0 0 Z M-4 9 C-3 13 -3 13 -3 13 Z " fill="#110E0E" transform="translate(95,163)"/>
<path d="M0 0 C0.66 0.33 1.32 0.66 2 1 C2 4.63 2 8.26 2 12 C1.01 11.67 0.02 11.34 -1 11 C-1.33 7.7 -1.66 4.4 -2 1 C-1.34 0.67 -0.68 0.34 0 0 Z " fill="#0E0C0C" transform="translate(193,155)"/>
<path d="M0 0 C1.9451 2.91765 2.45276317 4.62537285 3 8 C1.02 8.99 1.02 8.99 -1 10 C-2.23076923 4.58461538 -2.23076923 4.58461538 -1.0625 1.625 C-0.5365625 0.820625 -0.5365625 0.820625 0 0 Z " fill="#2C2929" transform="translate(85,125)"/>
<path d="M0 0 C2.52259061 1.97420135 2.9929808 2.96745642 3.6875 6.1875 C3.790625 7.115625 3.89375 8.04375 4 9 C2.125 8.375 2.125 8.375 0 7 C-1.25 3.875 -1.25 3.875 -2 1 C-1.34 0.67 -0.68 0.34 0 0 Z " fill="#1B1818" transform="translate(101,124)"/>
<path d="M0 0 C0.99 0.33 1.98 0.66 3 1 C2.67 3.31 2.34 5.62 2 8 C0.68 8.33 -0.64 8.66 -2 9 C-1.34 6.03 -0.68 3.06 0 0 Z " fill="#171414" transform="translate(142,62)"/>
<path d="M0 0 C0.99 0 1.98 0 3 0 C3.625 2.875 3.625 2.875 4 6 C3.34 6.66 2.68 7.32 2 8 C1.34 7.67 0.68 7.34 0 7 C-1.26229508 2.52459016 -1.26229508 2.52459016 0 0 Z " fill="#2B2828" transform="translate(76,95)"/>
<path d="M0 0 C0.66 0.33 1.32 0.66 2 1 C2 3.31 2 5.62 2 8 C1.01 8 0.02 8 -1 8 C-1.33 5.69 -1.66 3.38 -2 1 C-1.34 0.67 -0.68 0.34 0 0 Z " fill="#1B1919" transform="translate(218,153)"/>
<path d="M0 0 C0.33 1.32 0.66 2.64 1 4 C-0.98 4.66 -2.96 5.32 -5 6 C-5.33 5.01 -5.66 4.02 -6 3 C-4.02 2.01 -2.04 1.02 0 0 Z " fill="#151212" transform="translate(196,204)"/>
<path d="M0 0 C1.31223496 3.93670488 0.24296256 6.12488144 -1 10 C-1.99 10 -2.98 10 -4 10 C-4 5.75354935 -2.18249194 3.61475228 0 0 Z " fill="#D7D7D7" transform="translate(147,89)"/>
<path d="M0 0 C0.33 0.99 0.66 1.98 1 3 C-1.31 3.33 -3.62 3.66 -6 4 C-6.33 3.01 -6.66 2.02 -7 1 C-4.53721199 -0.231394 -2.7204945 -0.07159196 0 0 Z " fill="#141212" transform="translate(108,25)"/>
<path d="M0 0 C2 2 2 2 2.125 4.625 C2.08375 5.40875 2.0425 6.1925 2 7 C1.01 7.33 0.02 7.66 -1 8 C-1.33 5.69 -1.66 3.38 -2 1 C-1.34 0.67 -0.68 0.34 0 0 Z " fill="#1A1717" transform="translate(79,101)"/>
<path d="M0 0 C1.65 0.33 3.3 0.66 5 1 C5 2.32 5 3.64 5 5 C3.02 4.34 1.04 3.68 -1 3 C-0.67 2.01 -0.34 1.02 0 0 Z " fill="#292626" transform="translate(119,12)"/>
<path d="M0 0 C0 0.99 0 1.98 0 3 C-2.64 3 -5.28 3 -8 3 C-8 2.01 -8 1.02 -8 0 C-4.71303767 -0.79953138 -3.28976808 -1.09658936 0 0 Z " fill="#282525" transform="translate(107,13)"/>
<path d="M0 0 C0 0.66 0 1.32 0 2 C-1.65 2.66 -3.3 3.32 -5 4 C-5.66 3.34 -6.32 2.68 -7 2 C-7 1.34 -7 0.68 -7 0 C-3.86650268 -1.04449911 -3.01031744 -0.93423645 0 0 Z " fill="#272525" transform="translate(186,178)"/>
<path d="M0 0 C0.66 0 1.32 0 2 0 C2.66 1.32 3.32 2.64 4 4 C-2.93 3.505 -2.93 3.505 -10 3 C-10 2.67 -10 2.34 -10 2 C-6.7 2 -3.4 2 0 2 C0 1.34 0 0.68 0 0 Z " fill="#2F2C2C" transform="translate(117,87)"/>
<path d="M0 0 C0.99 0 1.98 0 3 0 C3.625 1.8125 3.625 1.8125 4 4 C3.01 5.485 3.01 5.485 2 7 C2 6.34 2 5.68 2 5 C1.34 5 0.68 5 0 5 C-0.5625 3.0625 -0.5625 3.0625 -1 1 C-0.67 0.67 -0.34 0.34 0 0 Z " fill="#272525" transform="translate(152,40)"/>
<path d="M0 0 C5.75 1.75 5.75 1.75 8 4 C7.67 4.66 7.34 5.32 7 6 C6.34 6 5.68 6 5 6 C5 5.34 5 4.68 5 4 C4.360625 3.896875 3.72125 3.79375 3.0625 3.6875 C2.381875 3.460625 1.70125 3.23375 1 3 C0.67 2.01 0.34 1.02 0 0 Z " fill="#161212" transform="translate(153,204)"/>
<path d="M0 0 C2 0.6875 2 0.6875 4 2.6875 C1.69 3.0175 -0.62 3.3475 -3 3.6875 C-3.33 2.6975 -3.66 1.7075 -4 0.6875 C-2 -0.3125 -2 -0.3125 0 0 Z " fill="#130F0F" transform="translate(39,122.3125)"/>
<path d="M0 0 C2.475 0.99 2.475 0.99 5 2 C5 3.65 5 5.3 5 7 C3.0625 6.3125 3.0625 6.3125 1 5 C0.25 2.375 0.25 2.375 0 0 Z " fill="#272424" transform="translate(130,15)"/>
<path d="M0 0 C0 0.99 0 1.98 0 3 C-1.98 3 -3.96 3 -6 3 C-6 2.01 -6 1.02 -6 0 C-3.50907189 -1.24546405 -2.58919267 -0.7767578 0 0 Z " fill="#211F1F" transform="translate(42,209)"/>
<path d="M0 0 C0.99 0.99 1.98 1.98 3 3 C2.34 4.32 1.68 5.64 1 7 C0.34 6.67 -0.32 6.34 -1 6 C-1.042721 4.33388095 -1.04063832 2.66617115 -1 1 C-0.67 0.67 -0.34 0.34 0 0 Z " fill="#201D1D" transform="translate(145,101)"/>
<path d="M0 0 C0.99 0.33 1.98 0.66 3 1 C2.01 2.32 1.02 3.64 0 5 C-1.32 4.67 -2.64 4.34 -4 4 C-2.68 2.68 -1.36 1.36 0 0 Z " fill="#282626" transform="translate(141,70)"/>
<path d="M0 0 C0.33 0 0.66 0 1 0 C1 2.64 1 5.28 1 8 C0.01 8.33 -0.98 8.66 -2 9 C-1.125 1.125 -1.125 1.125 0 0 Z " fill="#110F0F" transform="translate(157,54)"/>
<path d="M0 0 C0.99 0 1.98 0 3 0 C3.33 1.65 3.66 3.3 4 5 C2.02 4.01 0.04 3.02 -2 2 C-1.34 1.34 -0.68 0.68 0 0 Z " fill="#252222" transform="translate(165,177)"/>
<path d="M0 0 C0.66 1.32 1.32 2.64 2 4 C1.34 4 0.68 4 0 4 C-0.33 4.99 -0.66 5.98 -1 7 C-1.66 7 -2.32 7 -3 7 C-2.625 4.0625 -2.625 4.0625 -2 1 C-1.34 0.67 -0.68 0.34 0 0 Z " fill="#302D2D" transform="translate(139,129)"/>
<path d="M0 0 C-0.8125 1.9375 -0.8125 1.9375 -2 4 C-2.99 4.33 -3.98 4.66 -5 5 C-5.33 3.68 -5.66 2.36 -6 1 C-3.92446352 0.4465236 -2.15634036 0 0 0 Z " fill="#302E2E" transform="translate(64,115)"/>
<path d="M0 0 C2.97 0.495 2.97 0.495 6 1 C5.67 1.99 5.34 2.98 5 4 C2.03 3.505 2.03 3.505 -1 3 C-0.67 2.01 -0.34 1.02 0 0 Z " fill="#0F0D0D" transform="translate(151,113)"/>
<path d="M0 0 C0.33 0.99 0.66 1.98 1 3 C-0.98 3.33 -2.96 3.66 -5 4 C-5.33 3.01 -5.66 2.02 -6 1 C-3 0 -3 0 0 0 Z " fill="#0F0C0C" transform="translate(74,113)"/>
<path d="M0 0 C2.31 0.33 4.62 0.66 7 1 C6.67 1.99 6.34 2.98 6 4 C3.69 3.67 1.38 3.34 -1 3 C-0.67 2.01 -0.34 1.02 0 0 Z " fill="#0C0909" transform="translate(117,25)"/>
</svg>
