<?xml version="1.0" standalone="no"?>
<!DOCTYPE svg PUBLIC "-//W3C//DTD SVG 20010904//EN"
 "http://www.w3.org/TR/2001/REC-SVG-20010904/DTD/svg10.dtd">
<svg version="1.0" xmlns="http://www.w3.org/2000/svg"
 width="225.000000pt" height="225.000000pt" viewBox="0 0 225.000000 225.000000"
 preserveAspectRatio="xMidYMid meet">
<metadata>
Created by potrace 1.16, written by Peter Selinger 2001-2019
</metadata>
<g transform="translate(0.000000,225.000000) scale(0.100000,-0.100000)"
fill="#000000" stroke="none">
<path d="M995 2116 c-145 -46 -261 -163 -306 -307 -33 -106 -27 -180 40 -440
41 -158 56 -232 48 -234 -7 -2 -106 -29 -222 -60 -237 -64 -293 -87 -363 -150
-204 -183 -205 -499 -3 -688 144 -135 374 -156 544 -50 23 14 120 102 215 196
l173 171 57 -55 c31 -30 113 -108 182 -175 69 -67 145 -133 170 -147 182 -103
424 -64 561 92 164 186 157 461 -17 638 -72 73 -140 103 -379 167 -115 31
-215 59 -221 61 -8 2 8 81 47 240 63 254 69 311 44 408 -41 158 -148 275 -300
327 -68 23 -206 26 -270 6z m230 -31 c315 -82 425 -484 195 -715 -242 -241
-648 -107 -711 233 -39 211 99 424 312 481 71 19 132 19 204 1z m-9 -917 c46
-12 84 -26 84 -31 0 -5 -12 -28 -26 -53 l-26 -44 -124 0 -123 0 -26 43 c-14
24 -25 48 -25 54 0 10 125 49 164 52 10 0 56 -9 102 -21z m-580 -190 c79 -29
157 -90 203 -159 57 -86 74 -150 69 -264 -3 -80 -8 -101 -38 -161 -131 -268
-483 -323 -681 -106 -160 175 -156 426 10 593 118 117 284 154 437 97z m404
-75 l62 -108 -27 -52 c-15 -29 -30 -53 -34 -53 -4 0 -36 30 -72 68 -62 63 -67
72 -88 152 -12 47 -21 88 -21 93 0 4 26 7 59 7 l58 0 63 -107z m180 97 c0 -8
-84 -157 -95 -168 -4 -4 -95 155 -95 168 0 6 36 10 95 10 55 0 95 -4 95 -10z
m170 5 c0 -3 -10 -45 -21 -93 -21 -83 -24 -90 -88 -154 -36 -38 -69 -68 -72
-68 -8 0 -59 88 -59 102 0 4 27 56 61 113 l61 105 59 0 c32 0 59 -2 59 -5z
m429 -5 c181 -30 323 -176 352 -363 25 -158 -54 -328 -194 -418 -164 -106
-377 -81 -517 60 -99 100 -146 245 -120 373 39 200 190 333 405 357 6 0 39 -4
74 -9z"/>
<path d="M1044 1999 c-63 -15 -145 -69 -186 -124 -126 -165 -70 -405 117 -503
44 -24 61 -27 150 -27 85 0 106 3 143 23 67 36 129 98 159 161 24 48 28 68 28
141 0 102 -28 173 -95 240 -78 78 -209 115 -316 89z m211 -56 c84 -44 165
-154 165 -225 l0 -28 -300 0 -299 0 6 33 c18 93 79 173 166 217 57 29 68 31
142 28 55 -3 93 -11 120 -25z m165 -311 c0 -78 -78 -185 -168 -229 -77 -38
-184 -39 -252 -4 -88 45 -149 121 -169 210 l-9 41 299 0 c283 0 299 -1 299
-18z"/>
<path d="M477 908 c-20 -31 -227 -391 -227 -394 0 -2 51 -5 113 -6 l112 -3 3
-47 3 -48 -55 0 c-49 0 -56 -2 -56 -20 0 -18 7 -20 55 -20 l55 0 0 -55 c0 -42
3 -55 15 -55 12 0 15 13 15 55 l0 55 45 0 c38 0 45 3 45 20 0 17 -7 20 -45 20
l-45 0 0 50 0 50 110 0 c61 0 110 2 110 5 0 4 -228 404 -236 413 -1 2 -9 -7
-17 -20z m190 -355 c4 -10 -33 -13 -176 -13 -100 0 -181 2 -181 5 0 5 135 242
167 293 14 23 17 20 100 -124 47 -82 88 -154 90 -161z"/>
<path d="M1550 906 c0 -21 38 -65 72 -82 l30 -16 -35 -36 c-64 -66 -83 -145
-51 -220 26 -64 95 -122 144 -122 16 0 20 -6 20 -30 0 -28 -3 -30 -35 -30 -29
0 -35 -4 -35 -21 0 -18 5 -21 35 -17 34 4 35 3 35 -29 0 -26 4 -33 20 -33 16
0 20 7 20 35 0 33 2 35 35 35 24 0 35 5 35 15 0 11 -11 15 -36 15 -32 0 -35 2
-32 26 2 20 12 29 39 38 88 30 139 101 139 191 0 59 -31 128 -71 157 l-28 21
37 25 c44 29 61 51 62 75 0 26 -18 21 -48 -14 -35 -42 -79 -59 -150 -59 -67 0
-141 32 -157 68 -11 24 -45 31 -45 8z m277 -133 c44 -21 84 -81 90 -135 6 -58
-29 -125 -83 -156 -31 -18 -50 -22 -92 -19 -91 6 -152 72 -152 162 0 123 125
202 237 148z"/>
</g>
</svg>
